<svg width="16" height="15" viewBox="0 0 16 15" fill="none" xmlns="http://www.w3.org/2000/svg">
<g clip-path="url(#clip0_467_754)">
<path d="M7.99976 13.7498C4.54788 13.7498 1.74976 10.9516 1.74976 7.49976C1.74976 4.04788 4.54788 1.24976 7.99976 1.24976C11.4516 1.24976 14.2498 4.04788 14.2498 7.49976C14.2498 10.9516 11.4516 13.7498 7.99976 13.7498ZM7.99976 12.4998C9.32584 12.4998 10.5976 11.973 11.5353 11.0353C12.473 10.0976 12.9998 8.82584 12.9998 7.49976C12.9998 6.17367 12.473 4.9019 11.5353 3.96422C10.5976 3.02654 9.32584 2.49976 7.99976 2.49976C6.67367 2.49976 5.4019 3.02654 4.46422 3.96422C3.52654 4.9019 2.99976 6.17367 2.99976 7.49976C2.99976 8.82584 3.52654 10.0976 4.46422 11.0353C5.4019 11.973 6.67367 12.4998 7.99976 12.4998ZM4.87476 7.49976H6.12476C6.12476 7.99704 6.3223 8.47395 6.67393 8.82558C7.02556 9.17721 7.50247 9.37476 7.99976 9.37476C8.49704 9.37476 8.97395 9.17721 9.32558 8.82558C9.67721 8.47395 9.87476 7.99704 9.87476 7.49976H11.1248C11.1248 8.32856 10.7955 9.12341 10.2095 9.70946C9.62341 10.2955 8.82856 10.6248 7.99976 10.6248C7.17095 10.6248 6.3761 10.2955 5.79005 9.70946C5.204 9.12341 4.87476 8.32856 4.87476 7.49976Z" fill="#2A2F4E"/>
</g>
<defs>
<clipPath id="clip0_467_754">
<rect width="15" height="15" fill="white" transform="translate(0.5)"/>
</clipPath>
</defs>
</svg>
