<svg width="500" height="501" viewBox="0 0 500 501" fill="none" xmlns="http://www.w3.org/2000/svg">
<path d="M423.323 423.915C416.018 431.595 409.115 436.552 403.655 440.465C339.508 486.485 263.603 473.07 247.473 469.785C223.65 464.955 177.608 455.602 144.315 416.457C93.95 357.245 101.795 263.955 140.858 202.365C147.993 191.105 185.753 128.585 262.47 118.562C308.9 112.492 363.035 124.732 402.225 157.557C484.503 226.47 478.643 365.695 423.323 423.915Z" fill="#EFF1D1"/>
<path d="M477.895 294.127C477.895 294.7 477.433 295.165 476.858 295.165C476.285 295.165 475.818 294.702 475.818 294.127H436.63C436.63 294.7 436.165 295.165 435.59 295.165C435.017 295.165 434.55 294.702 434.55 294.127H429.655V318.985H434.55C434.55 318.412 435.015 317.947 435.59 317.947C436.162 317.947 436.63 318.41 436.63 318.985H475.818C475.818 318.412 476.283 317.947 476.858 317.947C477.43 317.947 477.895 318.41 477.895 318.985H482.793V294.127H477.895ZM435.59 316.92C435.017 316.92 434.55 316.455 434.55 315.88C434.55 315.305 435.015 314.842 435.59 314.842C436.162 314.842 436.63 315.305 436.63 315.88C436.63 316.455 436.162 316.92 435.59 316.92ZM435.59 313.812C435.017 313.812 434.55 313.347 434.55 312.772C434.55 312.2 435.015 311.735 435.59 311.735C436.162 311.735 436.63 312.197 436.63 312.772C436.63 313.345 436.162 313.812 435.59 313.812ZM435.59 310.705C435.017 310.705 434.55 310.24 434.55 309.665C434.55 309.09 435.015 308.625 435.59 308.625C436.162 308.625 436.63 309.09 436.63 309.665C436.63 310.24 436.162 310.705 435.59 310.705ZM435.59 307.597C435.017 307.597 434.55 307.132 434.55 306.557C434.55 305.985 435.015 305.517 435.59 305.517C436.162 305.517 436.63 305.982 436.63 306.557C436.63 307.132 436.162 307.597 435.59 307.597ZM435.59 304.49C435.017 304.49 434.55 304.025 434.55 303.45C434.55 302.877 435.015 302.41 435.59 302.41C436.162 302.41 436.63 302.875 436.63 303.45C436.63 304.025 436.162 304.49 435.59 304.49ZM435.59 301.38C435.017 301.38 434.55 300.917 434.55 300.342C434.55 299.767 435.015 299.302 435.59 299.302C436.162 299.302 436.63 299.767 436.63 300.342C436.63 300.917 436.162 301.38 435.59 301.38ZM435.59 298.272C435.017 298.272 434.55 297.81 434.55 297.235C434.55 296.662 435.015 296.195 435.59 296.195C436.162 296.195 436.63 296.66 436.63 297.235C436.63 297.81 436.162 298.272 435.59 298.272ZM476.858 316.92C476.285 316.92 475.818 316.455 475.818 315.88C475.818 315.305 476.283 314.842 476.858 314.842C477.43 314.842 477.895 315.305 477.895 315.88C477.895 316.455 477.433 316.92 476.858 316.92ZM476.858 313.812C476.285 313.812 475.818 313.347 475.818 312.772C475.818 312.2 476.283 311.735 476.858 311.735C477.43 311.735 477.895 312.197 477.895 312.772C477.895 313.345 477.433 313.812 476.858 313.812ZM476.858 310.705C476.285 310.705 475.818 310.24 475.818 309.665C475.818 309.09 476.283 308.625 476.858 308.625C477.43 308.625 477.895 309.09 477.895 309.665C477.895 310.24 477.433 310.705 476.858 310.705ZM476.858 307.597C476.285 307.597 475.818 307.132 475.818 306.557C475.818 305.985 476.283 305.517 476.858 305.517C477.43 305.517 477.895 305.982 477.895 306.557C477.895 307.132 477.433 307.597 476.858 307.597ZM476.858 304.49C476.285 304.49 475.818 304.025 475.818 303.45C475.818 302.877 476.283 302.41 476.858 302.41C477.43 302.41 477.895 302.875 477.895 303.45C477.895 304.025 477.433 304.49 476.858 304.49ZM476.858 301.38C476.285 301.38 475.818 300.917 475.818 300.342C475.818 299.767 476.283 299.302 476.858 299.302C477.43 299.302 477.895 299.767 477.895 300.342C477.895 300.917 477.433 301.38 476.858 301.38ZM476.858 298.272C476.285 298.272 475.818 297.81 475.818 297.235C475.818 296.662 476.283 296.195 476.858 296.195C477.43 296.195 477.895 296.66 477.895 297.235C477.895 297.81 477.433 298.272 476.858 298.272Z" fill="#EDBE2F"/>
<path d="M483.465 294.127H482.793V318.985H483.465V294.127Z" fill="#E69D25"/>
<path d="M447.638 305.482C446.598 305.482 445.533 304.826 445.483 303.637H446.486C446.499 304.132 446.932 304.541 447.638 304.541C448.368 304.541 448.802 304.182 448.802 303.711C448.802 303.278 448.467 303.055 448.009 302.956L447.217 302.77C446.251 302.51 445.694 302.04 445.694 301.111C445.694 300.158 446.511 299.402 447.675 299.402C448.653 299.402 449.668 299.922 449.668 301.086H448.628C448.616 300.64 448.158 300.343 447.7 300.343C447.142 300.343 446.771 300.702 446.771 301.148C446.771 301.544 447.142 301.755 447.514 301.842L448.368 302.052C449.569 302.349 449.879 303.067 449.879 303.724C449.879 304.801 448.839 305.482 447.638 305.482ZM455.879 300.455V299.551H456.957V305.333H455.879V304.306C455.495 304.999 454.691 305.482 453.762 305.482C452.251 305.482 450.926 304.207 450.926 302.436C450.926 300.727 452.177 299.402 453.811 299.402C454.678 299.402 455.495 299.774 455.879 300.455ZM453.923 304.467C454.951 304.467 455.879 303.612 455.879 302.436C455.879 301.247 454.876 300.418 453.91 300.418C452.858 300.418 452.016 301.346 452.016 302.436C452.016 303.538 452.858 304.467 453.923 304.467ZM461.023 303.959L462.794 299.551H463.958L461.543 305.333H460.491L458.089 299.551H459.24L461.023 303.959ZM470.399 302.424C470.399 302.585 470.387 302.746 470.375 302.906H465.669C465.83 303.934 466.573 304.467 467.564 304.467C468.27 304.467 468.913 304.145 469.248 303.563L470.177 303.934C469.681 304.937 468.641 305.482 467.527 305.482C465.88 305.482 464.555 304.256 464.555 302.424C464.555 300.591 465.88 299.402 467.527 299.402C469.174 299.402 470.399 300.591 470.399 302.424ZM465.682 301.978H469.322C469.186 300.987 468.48 300.418 467.527 300.418C466.548 300.418 465.855 300.938 465.682 301.978Z" fill="#363636"/>
<path d="M456.095 314.5H455.445L459.064 307.036H459.703L456.095 314.5ZM455.987 310.091C455.174 310.091 454.546 309.462 454.546 308.65C454.546 307.859 455.174 307.209 455.987 307.209C456.778 307.209 457.428 307.859 457.428 308.65C457.428 309.462 456.778 310.091 455.987 310.091ZM455.987 309.397C456.399 309.397 456.745 309.083 456.745 308.65C456.745 308.238 456.399 307.892 455.987 307.892C455.554 307.892 455.239 308.238 455.239 308.65C455.239 309.083 455.554 309.397 455.987 309.397ZM459.161 314.608C458.349 314.608 457.731 313.98 457.731 313.178C457.731 312.377 458.349 311.727 459.161 311.727C459.963 311.727 460.602 312.377 460.602 313.178C460.602 313.98 459.963 314.608 459.161 314.608ZM459.161 313.926C459.584 313.926 459.919 313.601 459.919 313.178C459.919 312.756 459.584 312.42 459.161 312.42C458.728 312.42 458.414 312.756 458.414 313.178C458.414 313.601 458.728 313.926 459.161 313.926Z" fill="#C43C38"/>
<path d="M104.185 243.493C103.213 243.493 102.738 255.798 104.185 255.798H100.92L101.123 242.79L104.185 243.493Z" fill="#E08920"/>
<path d="M55.005 243.493C55.9775 243.493 56.4525 255.798 55.005 255.798H58.27L58.0675 242.79L55.005 243.493Z" fill="#E08920"/>
<path d="M102.383 249.645C102.383 246.248 103.19 243.493 104.185 243.493V241.008C103.5 241.008 102.945 240.453 102.945 239.768H56.245C56.245 240.453 55.69 241.008 55.005 241.008V243.493C56 243.493 56.8075 246.248 56.8075 249.645C56.8075 253.043 56 255.798 55.005 255.798V258.283C55.69 258.283 56.245 258.838 56.245 259.523H102.943C102.943 258.838 103.498 258.283 104.183 258.283V255.798C103.19 255.8 102.383 253.045 102.383 249.645Z" fill="#E8A337"/>
<path d="M55.635 257.14H103.578" stroke="#E08920" stroke-width="0.291225" stroke-miterlimit="10"/>
<path d="M55.635 256.857H103.578" stroke="#EFC982" stroke-width="0.291225" stroke-miterlimit="10"/>
<path d="M55.635 242.32H103.578" stroke="#E08920" stroke-width="0.291225" stroke-miterlimit="10"/>
<path d="M55.635 242.038H103.578" stroke="#EFC982" stroke-width="0.291225" stroke-miterlimit="10"/>
<path d="M61.5772 249.326V245.415H62.1577V246.026H62.2086C62.2901 245.818 62.4216 245.656 62.6032 245.54C62.7848 245.423 63.0029 245.365 63.2574 245.365C63.5154 245.365 63.7301 245.423 63.9015 245.54C64.0746 245.656 64.2095 245.818 64.3063 246.026H64.347C64.4471 245.824 64.5973 245.664 64.7976 245.545C64.9979 245.425 65.238 245.365 65.518 245.365C65.8676 245.365 66.1536 245.474 66.3759 245.693C66.5983 245.91 66.7094 246.249 66.7094 246.709V249.326H66.1086V246.709C66.1086 246.42 66.0297 246.214 65.8719 246.09C65.714 245.966 65.5282 245.904 65.3144 245.904C65.0394 245.904 64.8264 245.987 64.6754 246.154C64.5243 246.318 64.4488 246.527 64.4488 246.78V249.326H63.8379V246.648C63.8379 246.425 63.7657 246.246 63.6215 246.11C63.4772 245.973 63.2914 245.904 63.064 245.904C62.9078 245.904 62.7619 245.946 62.6261 246.029C62.492 246.112 62.3834 246.228 62.3002 246.375C62.2188 246.521 62.178 246.69 62.178 246.882V249.326H61.5772ZM69.3964 249.407C69.0434 249.407 68.7337 249.323 68.4672 249.155C68.2025 248.987 67.9954 248.752 67.8461 248.45C67.6984 248.148 67.6246 247.795 67.6246 247.391C67.6246 246.984 67.6984 246.628 67.8461 246.324C67.9954 246.02 68.2025 245.785 68.4672 245.617C68.7337 245.449 69.0434 245.365 69.3964 245.365C69.7494 245.365 70.0583 245.449 70.3231 245.617C70.5895 245.785 70.7966 246.02 70.9442 246.324C71.0936 246.628 71.1683 246.984 71.1683 247.391C71.1683 247.795 71.0936 248.148 70.9442 248.45C70.7966 248.752 70.5895 248.987 70.3231 249.155C70.0583 249.323 69.7494 249.407 69.3964 249.407ZM69.3964 248.867C69.6646 248.867 69.8852 248.799 70.0583 248.661C70.2314 248.524 70.3596 248.343 70.4427 248.119C70.5259 247.895 70.5675 247.652 70.5675 247.391C70.5675 247.13 70.5259 246.886 70.4427 246.66C70.3596 246.435 70.2314 246.252 70.0583 246.113C69.8852 245.974 69.6646 245.904 69.3964 245.904C69.1283 245.904 68.9077 245.974 68.7345 246.113C68.5614 246.252 68.4333 246.435 68.3501 246.66C68.267 246.886 68.2254 247.13 68.2254 247.391C68.2254 247.652 68.267 247.895 68.3501 248.119C68.4333 248.343 68.5614 248.524 68.7345 248.661C68.9077 248.799 69.1283 248.867 69.3964 248.867ZM72.6861 246.973V249.326H72.0853V245.415H72.6658V246.026H72.7167C72.8083 245.828 72.9475 245.668 73.1342 245.548C73.3209 245.426 73.5619 245.365 73.8572 245.365C74.1219 245.365 74.3536 245.419 74.5522 245.527C74.7507 245.634 74.9052 245.797 75.0155 246.016C75.1258 246.233 75.1809 246.508 75.1809 246.841V249.326H74.5802V246.882C74.5802 246.575 74.5004 246.335 74.3409 246.164C74.1813 245.991 73.9624 245.904 73.6841 245.904C73.4923 245.904 73.3209 245.946 73.1698 246.029C73.0205 246.112 72.9025 246.233 72.816 246.393C72.7294 246.553 72.6861 246.746 72.6861 246.973ZM77.9182 249.407C77.5415 249.407 77.2165 249.324 76.9432 249.158C76.6717 248.99 76.4621 248.755 76.3144 248.455C76.1685 248.153 76.0955 247.802 76.0955 247.401C76.0955 247.001 76.1685 246.648 76.3144 246.342C76.4621 246.035 76.6674 245.796 76.9305 245.624C77.1952 245.451 77.5041 245.365 77.8571 245.365C78.0608 245.365 78.2619 245.398 78.4605 245.466C78.659 245.534 78.8398 245.645 79.0027 245.797C79.1656 245.948 79.2955 246.149 79.3922 246.398C79.4889 246.648 79.5373 246.955 79.5373 247.32V247.574H76.5232V247.055H78.9263C78.9263 246.834 78.8822 246.637 78.794 246.464C78.7074 246.291 78.5835 246.155 78.4223 246.054C78.2628 245.954 78.0744 245.904 77.8571 245.904C77.6178 245.904 77.4108 245.964 77.236 246.082C77.0629 246.2 76.9296 246.352 76.8363 246.541C76.743 246.729 76.6963 246.931 76.6963 247.147V247.493C76.6963 247.788 76.7472 248.038 76.849 248.244C76.9526 248.447 77.096 248.603 77.2793 248.71C77.4625 248.815 77.6755 248.867 77.9182 248.867C78.0761 248.867 78.2186 248.845 78.3459 248.801C78.4749 248.755 78.5861 248.688 78.6794 248.598C78.7727 248.506 78.8449 248.392 78.8958 248.256L79.4762 248.419C79.4151 248.616 79.3124 248.789 79.1682 248.939C79.0239 249.086 78.8457 249.202 78.6336 249.285C78.4214 249.366 78.183 249.407 77.9182 249.407ZM80.7192 250.792C80.6173 250.792 80.5265 250.784 80.4468 250.767C80.367 250.751 80.3118 250.736 80.2813 250.721L80.434 250.191C80.58 250.229 80.709 250.242 80.821 250.232C80.933 250.222 81.0323 250.172 81.1188 250.082C81.2071 249.994 81.2877 249.85 81.3607 249.652L81.4727 249.346L80.0267 245.415H80.6784L81.7578 248.531H81.7985L82.8779 245.415H83.5296L81.8698 249.896C81.7952 250.098 81.7027 250.265 81.5923 250.397C81.482 250.532 81.3539 250.631 81.2079 250.695C81.0637 250.76 80.9008 250.792 80.7192 250.792ZM86.4203 249.326V244.112H87.0211V246.037H87.072C87.1161 245.969 87.1772 245.882 87.2553 245.777C87.3351 245.67 87.4488 245.575 87.5964 245.492C87.7458 245.407 87.9477 245.365 88.2023 245.365C88.5316 245.365 88.8218 245.447 89.0729 245.611C89.3241 245.776 89.5201 246.009 89.661 246.312C89.8019 246.614 89.8723 246.97 89.8723 247.381C89.8723 247.795 89.8019 248.154 89.661 248.458C89.5201 248.76 89.325 248.994 89.0755 249.16C88.826 249.325 88.5383 249.407 88.2125 249.407C87.9613 249.407 87.7602 249.366 87.6092 249.282C87.4581 249.198 87.3419 249.102 87.2604 248.995C87.1789 248.886 87.1161 248.796 87.072 248.725H87.0007V249.326H86.4203ZM87.0109 247.371C87.0109 247.666 87.0542 247.926 87.1407 248.152C87.2273 248.376 87.3537 248.552 87.5201 248.679C87.6864 248.805 87.89 248.867 88.131 248.867C88.3822 248.867 88.5918 248.801 88.7598 248.669C88.9295 248.535 89.0568 248.355 89.1417 248.129C89.2282 247.902 89.2715 247.649 89.2715 247.371C89.2715 247.096 89.2291 246.848 89.1442 246.627C89.0611 246.405 88.9346 246.229 88.7649 246.1C88.5969 245.97 88.3856 245.904 88.131 245.904C87.8866 245.904 87.6813 245.966 87.515 246.09C87.3486 246.212 87.2231 246.384 87.1382 246.604C87.0533 246.823 87.0109 247.079 87.0109 247.371ZM91.942 249.417C91.6942 249.417 91.4693 249.371 91.2674 249.277C91.0654 249.182 90.905 249.046 90.7862 248.867C90.6674 248.688 90.608 248.47 90.608 248.216C90.608 247.992 90.6521 247.81 90.7404 247.671C90.8286 247.53 90.9466 247.42 91.0942 247.34C91.2419 247.26 91.4048 247.201 91.583 247.162C91.7629 247.121 91.9437 247.089 92.1253 247.065C92.3629 247.035 92.5555 247.012 92.7031 246.996C92.8525 246.979 92.9611 246.951 93.029 246.912C93.0986 246.873 93.1334 246.805 93.1334 246.709V246.688C93.1334 246.437 93.0646 246.242 92.9272 246.103C92.7914 245.964 92.5852 245.894 92.3086 245.894C92.0217 245.894 91.7969 245.957 91.6339 246.082C91.471 246.208 91.3565 246.342 91.2903 246.485L90.72 246.281C90.8219 246.043 90.9576 245.858 91.1273 245.726C91.2988 245.592 91.4854 245.499 91.6874 245.446C91.8911 245.392 92.0913 245.365 92.2882 245.365C92.4138 245.365 92.558 245.38 92.721 245.41C92.8856 245.439 93.0443 245.499 93.197 245.591C93.3515 245.683 93.4796 245.821 93.5814 246.006C93.6832 246.191 93.7342 246.439 93.7342 246.749V249.326H93.1334V248.796H93.1028C93.0621 248.881 92.9942 248.972 92.8992 249.069C92.8041 249.165 92.6777 249.248 92.5199 249.316C92.362 249.383 92.1694 249.417 91.942 249.417ZM92.0336 248.878C92.2712 248.878 92.4715 248.831 92.6344 248.738C92.799 248.644 92.9229 248.524 93.0061 248.376C93.0909 248.228 93.1334 248.073 93.1334 247.91V247.36C93.1079 247.391 93.0519 247.419 92.9654 247.444C92.8805 247.468 92.7821 247.489 92.67 247.508C92.5597 247.525 92.452 247.54 92.3467 247.554C92.2432 247.566 92.1592 247.576 92.0947 247.584C91.9386 247.605 91.7926 247.638 91.6569 247.684C91.5228 247.728 91.4142 247.795 91.331 247.885C91.2495 247.973 91.2088 248.094 91.2088 248.246C91.2088 248.455 91.286 248.613 91.4405 248.72C91.5966 248.825 91.7943 248.878 92.0336 248.878ZM96.4193 249.407C96.0527 249.407 95.737 249.321 95.4723 249.147C95.2075 248.974 95.0038 248.736 94.8613 248.432C94.7187 248.128 94.6474 247.781 94.6474 247.391C94.6474 246.994 94.7204 246.643 94.8664 246.34C95.014 246.034 95.2194 245.796 95.4824 245.624C95.7472 245.451 96.0561 245.365 96.4091 245.365C96.684 245.365 96.9318 245.415 97.1524 245.517C97.3731 245.619 97.5538 245.762 97.6947 245.945C97.8355 246.128 97.9229 246.342 97.9569 246.586H97.3561C97.3103 246.408 97.2084 246.25 97.0506 246.113C96.8945 245.974 96.684 245.904 96.4193 245.904C96.1851 245.904 95.9797 245.965 95.8032 246.088C95.6284 246.208 95.4918 246.379 95.3933 246.599C95.2966 246.818 95.2482 247.075 95.2482 247.371C95.2482 247.673 95.2957 247.936 95.3908 248.16C95.4875 248.384 95.6233 248.558 95.7981 248.682C95.9746 248.806 96.1817 248.867 96.4193 248.867C96.5754 248.867 96.7171 248.84 96.8444 248.786C96.9717 248.732 97.0794 248.654 97.1677 248.552C97.256 248.45 97.3187 248.328 97.3561 248.185H97.9569C97.9229 248.416 97.8389 248.624 97.7048 248.809C97.5725 248.992 97.3968 249.138 97.1779 249.247C96.9606 249.354 96.7078 249.407 96.4193 249.407ZM99.3952 247.9L99.385 247.157H99.5072L101.218 245.415H101.961L100.139 247.259H100.088L99.3952 247.9ZM98.8351 249.326V244.112H99.4359V249.326H98.8351ZM101.32 249.326L99.7923 247.391L100.22 246.973L102.083 249.326H101.32Z" fill="#E59523"/>
<path d="M70.0083 255.132C69.6417 255.132 69.326 255.046 69.0613 254.873C68.7965 254.699 68.5929 254.461 68.4503 254.157C68.3077 253.853 68.2365 253.506 68.2365 253.116C68.2365 252.719 68.3094 252.368 68.4554 252.065C68.603 251.759 68.8084 251.521 69.0715 251.349C69.3362 251.176 69.6451 251.09 69.9981 251.09C70.273 251.09 70.5208 251.141 70.7414 251.242C70.9621 251.344 71.1428 251.487 71.2837 251.67C71.4245 251.853 71.512 252.067 71.5459 252.312H70.9451C70.8993 252.133 70.7975 251.976 70.6396 251.838C70.4835 251.699 70.273 251.629 70.0083 251.629C69.7741 251.629 69.5687 251.69 69.3922 251.813C69.2174 251.933 69.0808 252.104 68.9824 252.324C68.8856 252.543 68.8372 252.8 68.8372 253.096C68.8372 253.398 68.8848 253.661 68.9798 253.885C69.0765 254.109 69.2123 254.283 69.3871 254.407C69.5636 254.531 69.7707 254.593 70.0083 254.593C70.1644 254.593 70.3061 254.565 70.4334 254.511C70.5607 254.457 70.6685 254.379 70.7567 254.277C70.845 254.175 70.9078 254.053 70.9451 253.91H71.5459C71.512 254.141 71.4279 254.349 71.2939 254.534C71.1615 254.717 70.9858 254.863 70.7669 254.972C70.5497 255.079 70.2968 255.132 70.0083 255.132ZM74.0127 255.132C73.6597 255.132 73.35 255.048 73.0835 254.88C72.8188 254.712 72.6117 254.477 72.4624 254.175C72.3147 253.873 72.2409 253.52 72.2409 253.116C72.2409 252.709 72.3147 252.353 72.4624 252.049C72.6117 251.746 72.8188 251.51 73.0835 251.342C73.35 251.174 73.6597 251.09 74.0127 251.09C74.3657 251.09 74.6746 251.174 74.9393 251.342C75.2058 251.51 75.4128 251.746 75.5605 252.049C75.7098 252.353 75.7845 252.709 75.7845 253.116C75.7845 253.52 75.7098 253.873 75.5605 254.175C75.4128 254.477 75.2058 254.712 74.9393 254.88C74.6746 255.048 74.3657 255.132 74.0127 255.132ZM74.0127 254.593C74.2808 254.593 74.5015 254.524 74.6746 254.386C74.8477 254.249 74.9758 254.068 75.059 253.844C75.1421 253.62 75.1837 253.377 75.1837 253.116C75.1837 252.855 75.1421 252.611 75.059 252.385C74.9758 252.16 74.8477 251.977 74.6746 251.838C74.5015 251.699 74.2808 251.629 74.0127 251.629C73.7445 251.629 73.5239 251.699 73.3508 251.838C73.1777 251.977 73.0496 252.16 72.9664 252.385C72.8832 252.611 72.8417 252.855 72.8417 253.116C72.8417 253.377 72.8832 253.62 72.9664 253.844C73.0496 254.068 73.1777 254.249 73.3508 254.386C73.5239 254.524 73.7445 254.593 74.0127 254.593ZM79.1659 253.452V251.141H79.7667V255.051H79.1659V254.389H79.1251C79.0335 254.587 78.8909 254.756 78.6975 254.895C78.504 255.033 78.2596 255.102 77.9643 255.102C77.7199 255.102 77.5027 255.048 77.3126 254.941C77.1225 254.833 76.9732 254.67 76.8645 254.453C76.7559 254.234 76.7016 253.958 76.7016 253.625V251.141H77.3024V253.584C77.3024 253.87 77.3822 254.097 77.5417 254.267C77.7029 254.436 77.9083 254.521 78.1578 254.521C78.3071 254.521 78.459 254.483 78.6135 254.407C78.7696 254.33 78.9003 254.213 79.0055 254.055C79.1124 253.898 79.1659 253.696 79.1659 253.452ZM80.8671 256.517V251.141H81.4475V251.762H81.5188C81.5629 251.694 81.624 251.607 81.702 251.502C81.7818 251.395 81.8955 251.3 82.0432 251.217C82.1925 251.132 82.3945 251.09 82.6491 251.09C82.9783 251.09 83.2685 251.172 83.5197 251.337C83.7709 251.501 83.9669 251.735 84.1078 252.037C84.2486 252.339 84.319 252.695 84.319 253.106C84.319 253.52 84.2486 253.879 84.1078 254.183C83.9669 254.485 83.7717 254.719 83.5222 254.885C83.2728 255.05 82.9851 255.132 82.6592 255.132C82.4081 255.132 82.2069 255.091 82.0559 255.008C81.9049 254.923 81.7886 254.827 81.7071 254.72C81.6257 254.611 81.5629 254.521 81.5188 254.45H81.4678V256.517H80.8671ZM81.4577 253.096C81.4577 253.391 81.5009 253.651 81.5875 253.877C81.674 254.101 81.8005 254.277 81.9668 254.404C82.1331 254.53 82.3368 254.593 82.5778 254.593C82.829 254.593 83.0386 254.526 83.2066 254.394C83.3763 254.26 83.5036 254.08 83.5884 253.854C83.675 253.627 83.7183 253.374 83.7183 253.096C83.7183 252.821 83.6758 252.573 83.591 252.352C83.5078 252.13 83.3814 251.954 83.2117 251.825C83.0436 251.695 82.8323 251.629 82.5778 251.629C82.3334 251.629 82.128 251.691 81.9617 251.815C81.7954 251.937 81.6698 252.109 81.5849 252.329C81.5001 252.548 81.4577 252.804 81.4577 253.096ZM86.824 255.132C86.471 255.132 86.1613 255.048 85.8948 254.88C85.6301 254.712 85.423 254.477 85.2737 254.175C85.126 253.873 85.0522 253.52 85.0522 253.116C85.0522 252.709 85.126 252.353 85.2737 252.049C85.423 251.746 85.6301 251.51 85.8948 251.342C86.1613 251.174 86.471 251.09 86.824 251.09C87.177 251.09 87.4859 251.174 87.7507 251.342C88.0171 251.51 88.2242 251.746 88.3718 252.049C88.5212 252.353 88.5959 252.709 88.5959 253.116C88.5959 253.52 88.5212 253.873 88.3718 254.175C88.2242 254.477 88.0171 254.712 87.7507 254.88C87.4859 255.048 87.177 255.132 86.824 255.132ZM86.824 254.593C87.0922 254.593 87.3128 254.524 87.4859 254.386C87.659 254.249 87.7872 254.068 87.8703 253.844C87.9535 253.62 87.9951 253.377 87.9951 253.116C87.9951 252.855 87.9535 252.611 87.8703 252.385C87.7872 252.16 87.659 251.977 87.4859 251.838C87.3128 251.699 87.0922 251.629 86.824 251.629C86.5559 251.629 86.3353 251.699 86.1621 251.838C85.989 251.977 85.8609 252.16 85.7777 252.385C85.6946 252.611 85.653 252.855 85.653 253.116C85.653 253.377 85.6946 253.62 85.7777 253.844C85.8609 254.068 85.989 254.249 86.1621 254.386C86.3353 254.524 86.5559 254.593 86.824 254.593ZM90.1137 252.699V255.051H89.513V251.141H90.0934V251.752H90.1443C90.2359 251.553 90.3751 251.393 90.5618 251.273C90.7485 251.151 90.9895 251.09 91.2848 251.09C91.5495 251.09 91.7812 251.144 91.9798 251.253C92.1783 251.359 92.3328 251.522 92.4431 251.741C92.5534 251.959 92.6086 252.234 92.6086 252.566V255.051H92.0078V252.607C92.0078 252.3 91.928 252.06 91.7685 251.889C91.6089 251.716 91.39 251.629 91.1117 251.629C90.9199 251.629 90.7485 251.671 90.5974 251.754C90.4481 251.837 90.3301 251.959 90.2436 252.118C90.157 252.278 90.1137 252.471 90.1137 252.699Z" fill="#E59523"/>
<path d="M61.5772 249.035V245.124H62.1577V245.735H62.2086C62.2901 245.527 62.4216 245.365 62.6032 245.249C62.7848 245.132 63.0029 245.074 63.2574 245.074C63.5154 245.074 63.7301 245.132 63.9015 245.249C64.0746 245.365 64.2095 245.527 64.3063 245.735H64.347C64.4471 245.533 64.5973 245.373 64.7976 245.254C64.9979 245.134 65.238 245.074 65.518 245.074C65.8676 245.074 66.1536 245.183 66.3759 245.402C66.5983 245.619 66.7094 245.958 66.7094 246.418V249.035H66.1086V246.418C66.1086 246.129 66.0297 245.923 65.8719 245.799C65.714 245.675 65.5282 245.613 65.3144 245.613C65.0394 245.613 64.8264 245.696 64.6754 245.863C64.5243 246.027 64.4488 246.236 64.4488 246.489V249.035H63.8379V246.357C63.8379 246.134 63.7657 245.955 63.6215 245.819C63.4772 245.682 63.2914 245.613 63.064 245.613C62.9078 245.613 62.7619 245.655 62.6261 245.738C62.492 245.821 62.3834 245.937 62.3002 246.084C62.2188 246.23 62.178 246.399 62.178 246.591V249.035H61.5772ZM69.3964 249.116C69.0434 249.116 68.7337 249.032 68.4672 248.864C68.2025 248.696 67.9954 248.461 67.8461 248.159C67.6984 247.857 67.6246 247.504 67.6246 247.1C67.6246 246.693 67.6984 246.337 67.8461 246.033C67.9954 245.729 68.2025 245.494 68.4672 245.326C68.7337 245.158 69.0434 245.074 69.3964 245.074C69.7494 245.074 70.0583 245.158 70.3231 245.326C70.5895 245.494 70.7966 245.729 70.9442 246.033C71.0936 246.337 71.1683 246.693 71.1683 247.1C71.1683 247.504 71.0936 247.857 70.9442 248.159C70.7966 248.461 70.5895 248.696 70.3231 248.864C70.0583 249.032 69.7494 249.116 69.3964 249.116ZM69.3964 248.576C69.6646 248.576 69.8852 248.508 70.0583 248.37C70.2314 248.233 70.3596 248.052 70.4427 247.828C70.5259 247.604 70.5675 247.361 70.5675 247.1C70.5675 246.839 70.5259 246.595 70.4427 246.369C70.3596 246.144 70.2314 245.961 70.0583 245.822C69.8852 245.683 69.6646 245.613 69.3964 245.613C69.1283 245.613 68.9077 245.683 68.7345 245.822C68.5614 245.961 68.4333 246.144 68.3501 246.369C68.267 246.595 68.2254 246.839 68.2254 247.1C68.2254 247.361 68.267 247.604 68.3501 247.828C68.4333 248.052 68.5614 248.233 68.7345 248.37C68.9077 248.508 69.1283 248.576 69.3964 248.576ZM72.6861 246.682V249.035H72.0853V245.124H72.6658V245.735H72.7167C72.8083 245.537 72.9475 245.377 73.1342 245.257C73.3209 245.135 73.5619 245.074 73.8572 245.074C74.1219 245.074 74.3536 245.128 74.5522 245.236C74.7507 245.343 74.9052 245.506 75.0155 245.725C75.1258 245.942 75.1809 246.217 75.1809 246.55V249.035H74.5802V246.591C74.5802 246.284 74.5004 246.044 74.3409 245.873C74.1813 245.7 73.9624 245.613 73.6841 245.613C73.4923 245.613 73.3209 245.655 73.1698 245.738C73.0205 245.821 72.9025 245.942 72.816 246.102C72.7294 246.262 72.6861 246.455 72.6861 246.682ZM77.9182 249.116C77.5415 249.116 77.2165 249.033 76.9432 248.867C76.6717 248.699 76.4621 248.464 76.3144 248.164C76.1685 247.862 76.0955 247.511 76.0955 247.11C76.0955 246.71 76.1685 246.357 76.3144 246.051C76.4621 245.744 76.6674 245.505 76.9305 245.333C77.1952 245.16 77.5041 245.074 77.8571 245.074C78.0608 245.074 78.2619 245.107 78.4605 245.175C78.659 245.243 78.8398 245.354 79.0027 245.506C79.1656 245.657 79.2955 245.858 79.3922 246.107C79.4889 246.357 79.5373 246.664 79.5373 247.029V247.283H76.5232V246.764H78.9263C78.9263 246.543 78.8822 246.346 78.794 246.173C78.7074 246 78.5835 245.864 78.4223 245.763C78.2628 245.663 78.0744 245.613 77.8571 245.613C77.6178 245.613 77.4108 245.673 77.236 245.791C77.0629 245.909 76.9296 246.061 76.8363 246.25C76.743 246.438 76.6963 246.64 76.6963 246.856V247.202C76.6963 247.497 76.7472 247.747 76.849 247.953C76.9526 248.156 77.096 248.312 77.2793 248.419C77.4625 248.524 77.6755 248.576 77.9182 248.576C78.0761 248.576 78.2186 248.554 78.3459 248.51C78.4749 248.464 78.5861 248.397 78.6794 248.307C78.7727 248.215 78.8449 248.101 78.8958 247.965L79.4762 248.128C79.4151 248.325 79.3124 248.498 79.1682 248.648C79.0239 248.795 78.8457 248.911 78.6336 248.994C78.4214 249.075 78.183 249.116 77.9182 249.116ZM80.7192 250.501C80.6173 250.501 80.5265 250.493 80.4468 250.476C80.367 250.46 80.3118 250.445 80.2813 250.43L80.434 249.9C80.58 249.938 80.709 249.951 80.821 249.941C80.933 249.931 81.0323 249.881 81.1188 249.791C81.2071 249.702 81.2877 249.559 81.3607 249.361L81.4727 249.055L80.0267 245.124H80.6784L81.7578 248.24H81.7985L82.8779 245.124H83.5296L81.8698 249.605C81.7952 249.807 81.7027 249.974 81.5923 250.106C81.482 250.24 81.3539 250.34 81.2079 250.404C81.0637 250.469 80.9008 250.501 80.7192 250.501ZM86.4203 249.035V243.821H87.0211V245.746H87.072C87.1161 245.678 87.1772 245.591 87.2553 245.486C87.3351 245.379 87.4488 245.284 87.5964 245.201C87.7458 245.116 87.9477 245.074 88.2023 245.074C88.5316 245.074 88.8218 245.156 89.0729 245.32C89.3241 245.485 89.5201 245.718 89.661 246.021C89.8019 246.323 89.8723 246.679 89.8723 247.09C89.8723 247.504 89.8019 247.863 89.661 248.167C89.5201 248.469 89.325 248.703 89.0755 248.869C88.826 249.034 88.5383 249.116 88.2125 249.116C87.9613 249.116 87.7602 249.075 87.6092 248.991C87.4581 248.907 87.3419 248.811 87.2604 248.704C87.1789 248.595 87.1161 248.505 87.072 248.434H87.0007V249.035H86.4203ZM87.0109 247.08C87.0109 247.375 87.0542 247.635 87.1407 247.861C87.2273 248.085 87.3537 248.261 87.5201 248.388C87.6864 248.514 87.89 248.576 88.131 248.576C88.3822 248.576 88.5918 248.51 88.7598 248.378C88.9295 248.244 89.0568 248.064 89.1417 247.838C89.2282 247.611 89.2715 247.358 89.2715 247.08C89.2715 246.805 89.2291 246.557 89.1442 246.336C89.0611 246.114 88.9346 245.938 88.7649 245.809C88.5969 245.679 88.3856 245.613 88.131 245.613C87.8866 245.613 87.6813 245.675 87.515 245.799C87.3486 245.921 87.2231 246.093 87.1382 246.313C87.0533 246.532 87.0109 246.788 87.0109 247.08ZM91.942 249.126C91.6942 249.126 91.4693 249.08 91.2674 248.986C91.0654 248.891 90.905 248.755 90.7862 248.576C90.6674 248.397 90.608 248.179 90.608 247.925C90.608 247.701 90.6521 247.519 90.7404 247.38C90.8286 247.239 90.9466 247.129 91.0942 247.049C91.2419 246.969 91.4048 246.91 91.583 246.871C91.7629 246.83 91.9437 246.798 92.1253 246.774C92.3629 246.744 92.5555 246.721 92.7031 246.705C92.8525 246.688 92.9611 246.66 93.029 246.621C93.0986 246.582 93.1334 246.514 93.1334 246.418V246.397C93.1334 246.146 93.0646 245.951 92.9272 245.812C92.7914 245.673 92.5852 245.603 92.3086 245.603C92.0217 245.603 91.7969 245.666 91.6339 245.791C91.471 245.917 91.3565 246.051 91.2903 246.194L90.72 245.99C90.8219 245.752 90.9576 245.567 91.1273 245.435C91.2988 245.301 91.4854 245.208 91.6874 245.155C91.8911 245.101 92.0913 245.074 92.2882 245.074C92.4138 245.074 92.558 245.089 92.721 245.119C92.8856 245.148 93.0443 245.208 93.197 245.3C93.3515 245.392 93.4796 245.53 93.5814 245.715C93.6832 245.9 93.7342 246.148 93.7342 246.458V249.035H93.1334V248.505H93.1028C93.0621 248.59 92.9942 248.681 92.8992 248.778C92.8041 248.874 92.6777 248.957 92.5199 249.024C92.362 249.092 92.1694 249.126 91.942 249.126ZM92.0336 248.587C92.2712 248.587 92.4715 248.54 92.6344 248.447C92.799 248.353 92.9229 248.233 93.0061 248.085C93.0909 247.937 93.1334 247.782 93.1334 247.619V247.069C93.1079 247.1 93.0519 247.128 92.9654 247.153C92.8805 247.177 92.7821 247.198 92.67 247.217C92.5597 247.234 92.452 247.249 92.3467 247.263C92.2432 247.275 92.1592 247.285 92.0947 247.293C91.9386 247.314 91.7926 247.347 91.6569 247.393C91.5228 247.437 91.4142 247.504 91.331 247.594C91.2495 247.682 91.2088 247.803 91.2088 247.955C91.2088 248.164 91.286 248.322 91.4405 248.429C91.5966 248.534 91.7943 248.587 92.0336 248.587ZM96.4193 249.116C96.0527 249.116 95.737 249.03 95.4723 248.856C95.2075 248.683 95.0038 248.445 94.8613 248.141C94.7187 247.837 94.6474 247.49 94.6474 247.1C94.6474 246.703 94.7204 246.352 94.8664 246.049C95.014 245.743 95.2194 245.505 95.4824 245.333C95.7472 245.16 96.0561 245.074 96.4091 245.074C96.684 245.074 96.9318 245.124 97.1524 245.226C97.3731 245.328 97.5538 245.471 97.6947 245.654C97.8355 245.837 97.9229 246.051 97.9569 246.295H97.3561C97.3103 246.117 97.2084 245.959 97.0506 245.822C96.8945 245.683 96.684 245.613 96.4193 245.613C96.1851 245.613 95.9797 245.674 95.8032 245.797C95.6284 245.917 95.4918 246.088 95.3933 246.308C95.2966 246.527 95.2482 246.784 95.2482 247.08C95.2482 247.382 95.2957 247.645 95.3908 247.869C95.4875 248.093 95.6233 248.267 95.7981 248.391C95.9746 248.514 96.1817 248.576 96.4193 248.576C96.5754 248.576 96.7171 248.549 96.8444 248.495C96.9717 248.441 97.0794 248.363 97.1677 248.261C97.256 248.159 97.3187 248.037 97.3561 247.894H97.9569C97.9229 248.125 97.8389 248.333 97.7048 248.518C97.5725 248.701 97.3968 248.847 97.1779 248.956C96.9606 249.063 96.7078 249.116 96.4193 249.116ZM99.3952 247.609L99.385 246.866H99.5072L101.218 245.124H101.961L100.139 246.968H100.088L99.3952 247.609ZM98.8351 249.035V243.821H99.4359V249.035H98.8351ZM101.32 249.035L99.7923 247.1L100.22 246.682L102.083 249.035H101.32Z" fill="#FAF1DE"/>
<path d="M70.0083 254.841C69.6417 254.841 69.326 254.755 69.0613 254.582C68.7965 254.408 68.5929 254.17 68.4503 253.866C68.3077 253.562 68.2365 253.215 68.2365 252.825C68.2365 252.428 68.3094 252.077 68.4554 251.774C68.603 251.468 68.8084 251.23 69.0715 251.058C69.3362 250.885 69.6451 250.799 69.9981 250.799C70.273 250.799 70.5208 250.85 70.7414 250.951C70.9621 251.053 71.1428 251.196 71.2837 251.379C71.4245 251.562 71.512 251.776 71.5459 252.021H70.9451C70.8993 251.842 70.7975 251.685 70.6396 251.547C70.4835 251.408 70.273 251.338 70.0083 251.338C69.7741 251.338 69.5687 251.399 69.3922 251.522C69.2174 251.642 69.0808 251.813 68.9824 252.033C68.8856 252.252 68.8372 252.509 68.8372 252.805C68.8372 253.107 68.8848 253.37 68.9798 253.594C69.0765 253.818 69.2123 253.992 69.3871 254.116C69.5636 254.24 69.7707 254.302 70.0083 254.302C70.1644 254.302 70.3061 254.274 70.4334 254.22C70.5607 254.166 70.6685 254.088 70.7567 253.986C70.845 253.884 70.9078 253.762 70.9451 253.619H71.5459C71.512 253.85 71.4279 254.058 71.2939 254.243C71.1615 254.426 70.9858 254.572 70.7669 254.681C70.5497 254.788 70.2968 254.841 70.0083 254.841ZM74.0127 254.841C73.6597 254.841 73.35 254.757 73.0835 254.589C72.8188 254.421 72.6117 254.186 72.4624 253.884C72.3147 253.582 72.2409 253.229 72.2409 252.825C72.2409 252.418 72.3147 252.062 72.4624 251.758C72.6117 251.455 72.8188 251.219 73.0835 251.051C73.35 250.883 73.6597 250.799 74.0127 250.799C74.3657 250.799 74.6746 250.883 74.9393 251.051C75.2058 251.219 75.4128 251.455 75.5605 251.758C75.7098 252.062 75.7845 252.418 75.7845 252.825C75.7845 253.229 75.7098 253.582 75.5605 253.884C75.4128 254.186 75.2058 254.421 74.9393 254.589C74.6746 254.757 74.3657 254.841 74.0127 254.841ZM74.0127 254.302C74.2808 254.302 74.5015 254.233 74.6746 254.095C74.8477 253.958 74.9758 253.777 75.059 253.553C75.1421 253.329 75.1837 253.086 75.1837 252.825C75.1837 252.564 75.1421 252.32 75.059 252.094C74.9758 251.869 74.8477 251.686 74.6746 251.547C74.5015 251.408 74.2808 251.338 74.0127 251.338C73.7445 251.338 73.5239 251.408 73.3508 251.547C73.1777 251.686 73.0496 251.869 72.9664 252.094C72.8832 252.32 72.8417 252.564 72.8417 252.825C72.8417 253.086 72.8832 253.329 72.9664 253.553C73.0496 253.777 73.1777 253.958 73.3508 254.095C73.5239 254.233 73.7445 254.302 74.0127 254.302ZM79.1659 253.161V250.85H79.7667V254.76H79.1659V254.098H79.1251C79.0335 254.296 78.8909 254.465 78.6975 254.604C78.504 254.742 78.2596 254.811 77.9643 254.811C77.7199 254.811 77.5027 254.757 77.3126 254.65C77.1225 254.542 76.9732 254.379 76.8645 254.162C76.7559 253.943 76.7016 253.667 76.7016 253.334V250.85H77.3024V253.293C77.3024 253.579 77.3822 253.806 77.5417 253.976C77.7029 254.145 77.9083 254.23 78.1578 254.23C78.3071 254.23 78.459 254.192 78.6135 254.116C78.7696 254.039 78.9003 253.922 79.0055 253.764C79.1124 253.607 79.1659 253.405 79.1659 253.161ZM80.8671 256.226V250.85H81.4475V251.471H81.5188C81.5629 251.403 81.624 251.316 81.702 251.211C81.7818 251.104 81.8955 251.009 82.0432 250.926C82.1925 250.841 82.3945 250.799 82.6491 250.799C82.9783 250.799 83.2685 250.881 83.5197 251.046C83.7709 251.21 83.9669 251.444 84.1078 251.746C84.2486 252.048 84.319 252.404 84.319 252.815C84.319 253.229 84.2486 253.588 84.1078 253.892C83.9669 254.194 83.7717 254.428 83.5222 254.594C83.2728 254.759 82.9851 254.841 82.6592 254.841C82.4081 254.841 82.2069 254.8 82.0559 254.716C81.9049 254.632 81.7886 254.536 81.7071 254.429C81.6257 254.32 81.5629 254.23 81.5188 254.159H81.4678V256.226H80.8671ZM81.4577 252.805C81.4577 253.1 81.5009 253.36 81.5875 253.586C81.674 253.81 81.8005 253.986 81.9668 254.113C82.1331 254.239 82.3368 254.302 82.5778 254.302C82.829 254.302 83.0386 254.235 83.2066 254.103C83.3763 253.969 83.5036 253.789 83.5884 253.563C83.675 253.336 83.7183 253.083 83.7183 252.805C83.7183 252.53 83.6758 252.282 83.591 252.061C83.5078 251.839 83.3814 251.663 83.2117 251.534C83.0436 251.404 82.8323 251.338 82.5778 251.338C82.3334 251.338 82.128 251.4 81.9617 251.524C81.7954 251.646 81.6698 251.818 81.5849 252.038C81.5001 252.257 81.4577 252.513 81.4577 252.805ZM86.824 254.841C86.471 254.841 86.1613 254.757 85.8948 254.589C85.6301 254.421 85.423 254.186 85.2737 253.884C85.126 253.582 85.0522 253.229 85.0522 252.825C85.0522 252.418 85.126 252.062 85.2737 251.758C85.423 251.455 85.6301 251.219 85.8948 251.051C86.1613 250.883 86.471 250.799 86.824 250.799C87.177 250.799 87.4859 250.883 87.7507 251.051C88.0171 251.219 88.2242 251.455 88.3718 251.758C88.5212 252.062 88.5959 252.418 88.5959 252.825C88.5959 253.229 88.5212 253.582 88.3718 253.884C88.2242 254.186 88.0171 254.421 87.7507 254.589C87.4859 254.757 87.177 254.841 86.824 254.841ZM86.824 254.302C87.0922 254.302 87.3128 254.233 87.4859 254.095C87.659 253.958 87.7872 253.777 87.8703 253.553C87.9535 253.329 87.9951 253.086 87.9951 252.825C87.9951 252.564 87.9535 252.32 87.8703 252.094C87.7872 251.869 87.659 251.686 87.4859 251.547C87.3128 251.408 87.0922 251.338 86.824 251.338C86.5559 251.338 86.3353 251.408 86.1621 251.547C85.989 251.686 85.8609 251.869 85.7777 252.094C85.6946 252.32 85.653 252.564 85.653 252.825C85.653 253.086 85.6946 253.329 85.7777 253.553C85.8609 253.777 85.989 253.958 86.1621 254.095C86.3353 254.233 86.5559 254.302 86.824 254.302ZM90.1137 252.408V254.76H89.513V250.85H90.0934V251.461H90.1443C90.2359 251.262 90.3751 251.102 90.5618 250.982C90.7485 250.86 90.9895 250.799 91.2848 250.799C91.5495 250.799 91.7812 250.853 91.9798 250.962C92.1783 251.068 92.3328 251.231 92.4431 251.45C92.5534 251.668 92.6086 251.943 92.6086 252.275V254.76H92.0078V252.316C92.0078 252.009 91.928 251.769 91.7685 251.598C91.6089 251.425 91.39 251.338 91.1117 251.338C90.9199 251.338 90.7485 251.38 90.5974 251.463C90.4481 251.546 90.3301 251.668 90.2436 251.827C90.157 251.987 90.1137 252.18 90.1137 252.408Z" fill="#FAF1DE"/>
<path d="M35.9425 22.3623H269.705C274.572 22.3623 278.517 26.3073 278.517 31.1748V201.11C278.517 205.977 274.572 209.922 269.705 209.922H35.9425C31.075 209.922 27.13 205.977 27.13 201.11V31.1748C27.13 26.3073 31.075 22.3623 35.9425 22.3623Z" fill="#EEC280"/>
<path d="M278.52 31.3198V31.1748C278.52 26.3073 274.575 22.3623 269.707 22.3623H35.9425C31.075 22.3623 27.13 26.3073 27.13 31.1748V31.3198H278.52Z" fill="#F3F0ED"/>
<path d="M129.983 154.528H57.5725C54.2625 154.528 51.5775 151.843 51.5775 148.533V68.1025C51.5775 64.64 54.385 61.8325 57.8475 61.8325H129.708C133.17 61.8325 135.978 64.64 135.978 68.1025V148.533C135.978 151.843 133.293 154.528 129.983 154.528Z" fill="#F3F0ED"/>
<path d="M129.708 154.528H57.8475C54.385 154.528 51.5775 151.72 51.5775 148.258V139.54H135.975V148.258C135.978 151.72 133.17 154.528 129.708 154.528Z" fill="#EFF1D1"/>
<path d="M85.8 142.115H55.005V151.955H85.8V142.115Z" fill="#8BC3A3"/>
<path d="M80.3425 72.0474L73.895 124.712H86.7925L93.24 98.3799L100.762 124.712H113.66L105.062 72.0474H80.3425Z" fill="#EEC280"/>
<path d="M241.523 158.695H165.24C163 158.695 161.182 156.877 161.182 154.637V70.0575C161.182 67.8175 163 66 165.24 66H241.523C243.763 66 245.58 67.8175 245.58 70.0575V154.637C245.58 156.877 243.763 158.695 241.523 158.695Z" fill="#F3F0ED"/>
<path d="M241.523 158.695H165.24C163 158.695 161.182 156.877 161.182 154.637V143.71H245.58V154.637C245.58 156.877 243.763 158.695 241.523 158.695Z" fill="#EFF1D1"/>
<path d="M195.403 146.28H164.608V156.12H195.403V146.28Z" fill="#C38B8B"/>
<path d="M184.035 120.903H222.727L215.202 99.4077H190.485L184.035 120.903Z" fill="#9EA2B3"/>
<path d="M164.26 160.525L152.825 223.432L211.89 228.76L211.258 164.762L164.26 160.525Z" fill="url(#paint0_linear_234_1168)"/>
<path d="M211.258 164.762L200.458 227.727L211.89 228.76L211.258 164.762Z" fill="url(#paint1_linear_234_1168)"/>
<path opacity="0.45" d="M211.888 228.615L204.61 218.667L202.505 215.79L200.458 227.727L203.44 227.997L211.89 228.76L211.888 228.615Z" fill="#BEBEBE"/>
<g opacity="0.33">
<path d="M180.933 162.067L179.275 161.917C175.153 163.069 175.155 165.027 175.158 165.119C175.16 165.209 175.473 165.292 175.875 165.317C175.915 165.32 175.953 165.322 175.995 165.322C176.46 165.337 176.835 165.267 176.83 165.167C176.83 165.144 176.8 163.12 180.933 162.067Z" fill="#4E242D"/>
</g>
<g opacity="0.33">
<path d="M202.368 164L200.71 163.85C196.588 165.002 196.59 166.96 196.593 167.052C196.595 167.142 196.908 167.225 197.31 167.25C197.35 167.252 197.388 167.255 197.43 167.255C197.895 167.27 198.27 167.2 198.265 167.1C198.265 167.077 198.235 165.052 202.368 164Z" fill="#4E242D"/>
</g>
<path opacity="0.33" d="M211.258 164.762L202.505 215.79L200.458 227.727L203.44 227.997L204.61 218.667L211.268 165.622L211.258 164.762Z" fill="#BFC78C"/>
<path d="M176.038 168.35C175.57 168.307 175.193 167.95 175.165 167.495C175.133 166.97 174.453 154.565 180.503 148.817C182.643 146.785 185.358 145.83 188.575 145.977C191.698 146.115 194.173 147.295 195.933 149.462C201.165 155.91 198.143 168.995 198.013 169.55C197.898 170.035 197.388 170.335 196.873 170.222C196.358 170.11 196.033 169.625 196.148 169.14C196.178 169.012 199.105 156.317 194.42 150.547C193.005 148.802 191.07 147.895 188.505 147.78C185.813 147.655 183.643 148.412 181.87 150.095C176.405 155.285 177.068 167.292 177.075 167.412C177.105 167.91 176.703 168.332 176.175 168.355C176.13 168.355 176.083 168.352 176.038 168.35Z" fill="#2F444D"/>
<path d="M260.745 336.562L248.9 467.973H371.283L358.122 336.562H260.745Z" fill="url(#paint2_linear_234_1168)"/>
<path d="M358.122 336.562L347.595 467.973H371.283L358.122 336.562Z" fill="url(#paint3_linear_234_1168)"/>
<path opacity="0.45" d="M371.253 467.675L354.45 448.58L349.59 443.055L347.595 467.972H353.775H371.283L371.253 467.675Z" fill="#BEBEBE"/>
<g opacity="0.33">
<path d="M295.297 336.64H291.865C283.605 339.772 283.97 343.792 283.995 343.985C284.017 344.167 284.672 344.28 285.507 344.255C285.587 344.252 285.67 344.25 285.752 344.245C286.71 344.187 287.467 343.977 287.44 343.772C287.435 343.727 286.997 339.572 295.297 336.64Z" fill="#4E242D"/>
</g>
<g opacity="0.33">
<path d="M339.71 336.64H336.277C328.017 339.772 328.382 343.792 328.407 343.985C328.43 344.167 329.085 344.28 329.92 344.255C330 344.252 330.083 344.25 330.165 344.245C331.122 344.187 331.88 343.977 331.852 343.772C331.847 343.727 331.41 339.572 339.71 336.64Z" fill="#4E242D"/>
</g>
<path opacity="0.33" d="M358.122 336.562L349.59 443.055L347.595 467.973H353.775L354.45 448.58L358.3 338.328L358.122 336.562Z" fill="#BFC78C"/>
<path d="M286.402 350.462C285.435 350.462 284.593 349.795 284.45 348.867C284.288 347.792 280.59 322.425 291.96 309.49C295.982 304.915 301.387 302.447 308.025 302.157C314.467 301.862 319.772 303.827 323.79 307.955C335.738 320.235 331.952 347.69 331.785 348.852C331.64 349.87 330.645 350.58 329.565 350.445C328.485 350.307 327.727 349.372 327.872 348.355C327.91 348.087 331.577 321.455 320.875 310.462C317.64 307.14 313.497 305.63 308.207 305.87C302.65 306.112 298.33 308.072 295 311.86C284.732 323.54 288.32 348.095 288.358 348.34C288.513 349.355 287.762 350.297 286.682 350.442C286.59 350.455 286.495 350.462 286.402 350.462Z" fill="#2F444D"/>
<path d="M346.99 323.972L334.542 467.82H463.175L449.342 323.972H346.99Z" fill="#EDBD5A"/>
<path d="M449.342 323.972L438.277 467.82H463.175L449.342 323.972Z" fill="#E29A62"/>
<path d="M463.142 467.492L445.485 446.59L440.375 440.545L438.277 467.82H444.772H463.175L463.142 467.492Z" fill="#DD6819"/>
<g opacity="0.33">
<path d="M383.31 324.06H379.703C371.02 327.49 371.405 331.89 371.43 332.1C371.455 332.3 372.142 332.422 373.02 332.397C373.105 332.395 373.19 332.392 373.277 332.385C374.282 332.322 375.08 332.09 375.052 331.87C375.045 331.817 374.585 327.267 383.31 324.06Z" fill="#4E242D"/>
</g>
<g opacity="0.33">
<path d="M429.99 324.06H426.382C417.7 327.49 418.085 331.89 418.11 332.1C418.135 332.3 418.822 332.422 419.7 332.397C419.785 332.395 419.87 332.392 419.957 332.385C420.962 332.322 421.76 332.09 421.732 331.87C421.725 331.817 421.265 327.267 429.99 324.06Z" fill="#4E242D"/>
</g>
<path opacity="0.33" d="M449.342 323.972L440.375 440.545L438.277 467.82H444.772L445.485 446.59L449.53 325.907L449.342 323.972Z" fill="#668A60"/>
<path d="M373.96 339.187C372.945 339.187 372.057 338.457 371.907 337.442C371.737 336.267 367.85 308.497 379.8 294.34C384.027 289.332 389.707 286.632 396.685 286.315C403.457 285.992 409.032 288.142 413.255 292.66C425.812 306.102 421.835 336.155 421.66 337.427C421.507 338.542 420.462 339.317 419.327 339.17C418.192 339.02 417.395 337.995 417.547 336.882C417.587 336.59 421.44 307.437 410.192 295.405C406.792 291.767 402.437 290.115 396.877 290.377C391.035 290.642 386.495 292.787 382.995 296.932C372.202 309.717 375.972 336.595 376.012 336.865C376.175 337.977 375.385 339.007 374.252 339.167C374.155 339.182 374.057 339.187 373.96 339.187Z" fill="#F5F2E8"/>
<path d="M258.075 338.18L246.232 469.593H368.612L355.452 338.18H258.075Z" fill="url(#paint4_linear_234_1168)"/>
<path d="M355.452 338.18L344.925 469.593H368.612L355.452 338.18Z" fill="url(#paint5_linear_234_1168)"/>
<path opacity="0.45" d="M368.582 469.292L351.782 450.197L346.922 444.675L344.925 469.592H351.105H368.612L368.582 469.292Z" fill="#BEBEBE"/>
<g opacity="0.33">
<path d="M292.63 338.26H289.197C280.937 341.392 281.302 345.412 281.327 345.605C281.35 345.787 282.005 345.9 282.84 345.875C282.92 345.872 283.002 345.87 283.085 345.865C284.042 345.807 284.8 345.597 284.772 345.392C284.765 345.347 284.327 341.19 292.63 338.26Z" fill="#4E242D"/>
</g>
<g opacity="0.33">
<path d="M337.042 338.26H333.61C325.35 341.392 325.715 345.412 325.74 345.605C325.762 345.787 326.417 345.9 327.252 345.875C327.332 345.872 327.415 345.87 327.497 345.865C328.455 345.807 329.212 345.597 329.185 345.392C329.177 345.347 328.74 341.19 337.042 338.26Z" fill="#4E242D"/>
</g>
<path opacity="0.33" d="M355.452 338.18L346.922 444.675L344.925 469.593H351.105L351.782 450.198L355.63 339.948L355.452 338.18Z" fill="#BFC78C"/>
<path d="M283.732 352.08C282.765 352.08 281.922 351.412 281.78 350.485C281.617 349.41 277.92 324.043 289.29 311.108C293.312 306.533 298.717 304.065 305.355 303.775C311.797 303.48 317.102 305.445 321.12 309.573C333.067 321.853 329.282 349.308 329.115 350.47C328.97 351.488 327.975 352.198 326.895 352.063C325.815 351.925 325.057 350.99 325.202 349.973C325.24 349.705 328.907 323.072 318.205 312.08C314.97 308.757 310.827 307.247 305.537 307.487C299.98 307.73 295.66 309.69 292.33 313.478C282.062 325.158 285.65 349.712 285.687 349.957C285.842 350.972 285.092 351.915 284.012 352.06C283.92 352.075 283.825 352.08 283.732 352.08Z" fill="#2F444D"/>
<path d="M246.512 441.389L267.93 434.175L259.156 408.123L237.738 415.336L246.512 441.389Z" fill="#FBC09A"/>
<path d="M218.072 247.149C217.027 247.504 215.955 247.874 214.93 248.219C197.567 254.082 183.107 261.887 182.315 281.762C181.6 299.749 190.477 316.784 196.962 333.034C206.652 357.319 234.542 416.802 236.972 423.129C239.658 422.732 267.103 415.097 266.665 413.609C260.65 393.239 250.802 374.027 244.02 353.887C242.695 349.949 241.367 346.012 240.042 342.077C236.737 332.262 233.432 322.449 230.125 312.634C229.122 309.662 228.122 306.687 227.12 303.714C225.75 299.649 225.533 297.729 230.395 295.822C231.61 295.344 232.837 294.897 234.057 294.432C216.39 286.202 213.357 264.347 218.072 247.149Z" fill="#5780AD"/>
<path d="M224.852 463.989C224.287 460.599 226.897 457.827 229.052 455.602C230.51 454.097 231.977 452.602 233.445 451.109C237.422 447.067 241.355 442.907 245.417 438.944C246.625 440.487 248.667 440.504 250.805 440.012C257.33 438.507 264.92 435.262 266.402 430.127C268.48 435.534 270.797 440.852 273.015 446.202C273.432 447.209 273.85 448.219 274.267 449.227C274.267 449.227 260.667 454.859 259.857 455.197C252.81 458.117 245.76 461.037 238.712 463.954C235.575 465.254 232.435 466.552 229.297 467.854C227.175 468.734 226.517 468.402 225.502 466.139C225.197 465.464 224.975 464.737 224.852 463.989Z" fill="#40223B"/>
<path d="M340.36 319.747C299.118 298.057 250.19 275.675 214.583 258.08C199.075 266.882 185.738 284.457 192.383 302.782C210.343 310.907 227.793 320.58 245.413 329.357C259.2 336.225 272.878 344.295 287.133 350.115C298.843 354.892 312.63 356.472 324.04 350.005C325.74 349.042 327.298 347.915 328.735 346.652C333.283 342.665 336.543 337.457 339.288 332.127C341.588 327.662 346.31 322.875 340.36 319.747Z" fill="#5780AD"/>
<path d="M123.625 418.465L146.018 421.262L158.273 396.655L138.042 386.58L123.625 418.465Z" fill="#FBC09A"/>
<path d="M97.6375 424.405C98.6725 421.13 102.255 419.84 105.185 418.835C107.167 418.155 109.152 417.487 111.137 416.825C116.517 415.025 121.907 413.105 127.327 411.415C127.702 413.337 129.515 414.28 131.645 414.81C138.142 416.427 146.377 416.982 150.03 413.077C149.43 418.837 149.08 424.627 148.627 430.402C148.542 431.49 148.457 432.58 148.372 433.667C148.372 433.667 133.697 432.517 132.822 432.45C125.217 431.855 117.61 431.257 110.005 430.662C106.617 430.397 103.232 430.13 99.845 429.867C97.555 429.69 97.12 429.095 97.24 426.615C97.275 425.877 97.41 425.127 97.6375 424.405Z" fill="#40223B"/>
<path d="M158.775 405.387C158.032 406.747 133.25 392.699 131.07 391.079C133.838 384.892 156.273 323.144 166.63 299.137C173.563 283.072 179.358 266.902 192.6 254.709C207.235 241.237 222.97 245.969 239.38 254.127C275.198 271.929 300.295 293.694 342.683 315.987C350.543 320.119 337.2 336.284 333.633 340.179C325.095 349.507 311.475 353.109 299.518 348.717C292.513 346.144 286.393 341.674 280.313 337.347C262.403 324.599 244.128 311.977 224.48 302.152C221.348 300.692 218.4 298.572 215.025 297.677C210.138 296.379 208.72 299.169 206.788 303.414C191.248 337.569 176.762 372.449 158.775 405.387Z" fill="#6DA3C5"/>
<path d="M274.168 233.722C270.043 237.574 266.567 239.749 263.837 240.189C262.697 240.372 261.533 240.329 260.41 240.062H260.407C258.512 239.559 256.76 238.624 255.288 237.329C253.508 235.789 251.93 234.032 250.585 232.099C247.875 228.322 245.185 223.222 242.587 216.942C237.975 205.792 234.752 193.642 233.245 187.389C229.567 185.489 223.145 181.882 221.46 179.057C220.518 177.474 219.882 173.349 219.762 168.019C219.652 163.129 220.007 158.637 220.652 156.842C220.825 156.364 221.012 156.084 221.215 156.012C221.57 155.874 229.94 152.672 232.447 153.262C232.545 153.284 232.642 153.317 232.735 153.357C233.865 153.132 234.735 152.962 235.155 152.882L235.205 152.872L235.29 152.857L235.427 165.022C235.685 165.347 235.872 165.724 235.975 166.127C236.04 166.492 235.86 166.727 235.447 166.829L235.487 170.392L235.49 170.402C235.49 170.409 235.495 170.417 235.492 170.422C235.51 170.514 235.51 170.607 235.49 170.699L235.508 172.239L241.645 155.477H241.648C242.015 156.004 250.63 168.442 252.05 172.164C252.905 174.409 251.095 179.762 249.425 183.854L263.86 209.707L265.37 207.437C272.687 196.447 288.182 194.797 297.65 203.999C297.425 204.352 292.052 212.732 285.228 221.367C281.85 225.757 278.153 229.884 274.168 233.722Z" fill="#FFAA8A"/>
<path d="M226.745 173.414L226.635 176.909C226.608 177.814 227.22 178.614 228.1 178.822L242.44 182.207L244.015 142.087L230.088 138.799C229.088 138.564 228.123 139.297 228.083 140.324L227.548 153.922C227.543 154.019 236.39 151.289 231.51 155.814C230.455 156.792 229.383 157.754 228.31 158.719C228.31 158.719 230.633 160.464 230.635 160.464C231.988 161.479 233.47 162.714 234.608 164.022C234.978 164.447 236.115 165.629 236.008 166.244C235.755 167.692 233.45 166.564 232.725 166.239C231.403 165.652 229.808 165.324 228.49 164.709L232.23 166.457C233.335 167.534 234.593 168.534 235.3 169.929C236.298 171.897 233.108 170.689 232.398 170.449C231.273 170.072 230.175 169.614 229.06 169.212L230.643 170.632L231.67 171.664C231.67 171.664 232.63 172.489 232.64 172.499C232.923 172.742 233.223 173.957 233.065 174.314C232.495 175.614 229.223 174.322 228.34 173.997C228.343 173.997 226.745 173.414 226.745 173.414Z" fill="#291010"/>
<path d="M242.443 182.204L243.128 182.367C244.133 182.604 245.103 181.867 245.145 180.834L246.583 144.214C246.618 143.337 246.025 142.557 245.17 142.357L244.018 142.084L242.443 182.204Z" fill="#080202"/>
<path d="M241.422 143.814C240.812 143.792 240.282 144.722 240.237 145.894C240.192 147.067 240.65 148.037 241.257 148.059C241.865 148.082 242.397 147.152 242.442 145.979C242.487 144.807 242.03 143.834 241.422 143.814Z" fill="white"/>
<path d="M268.695 198.934C268.355 199.157 268.02 199.384 267.69 199.624C265.843 200.964 263.952 202.927 261.552 201.327C260.83 200.844 260.37 200.064 259.938 199.309C257.292 194.714 254.648 190.122 252.005 185.527C245.013 187.359 238.022 189.194 231.03 191.027C231.735 201.519 235.443 211.564 239.565 221.237C241.81 226.504 244.24 231.794 247.977 236.132C251.715 240.469 256.97 243.804 262.693 244.022C270.813 244.329 277.758 238.597 283.828 233.194C286.46 230.852 289.095 228.507 291.728 226.164C294.528 223.672 297.367 221.134 299.34 217.947C302.185 213.349 302.993 207.747 302.795 202.344C302.64 198.147 301.703 193.952 299.763 190.207C298.51 187.792 296.663 183.642 293.883 182.614C290.955 181.532 287.885 184.357 285.645 186.072C281.582 189.187 278.022 192.937 273.775 195.814C272.087 196.954 270.343 197.859 268.695 198.934Z" fill="#2A2F4E"/>
<path d="M351.62 307.464C349.875 314.574 347.3 320.097 343.4 319.952C330.553 319.472 318.328 316.327 305.718 314.575C292.383 312.722 279.195 309.64 266.555 304.98C264.325 304.157 262.055 303.252 260.302 301.647C255.085 296.872 256.295 285.939 256.98 279.647C257.735 272.719 259.14 265.909 260.103 259.017C262.145 244.399 265.443 229.972 269.75 215.857C272.81 205.825 276.845 195.639 283.397 187.339C292.158 176.239 299.023 173.787 312.383 174.277C319.55 174.539 323.865 175.894 329.255 181.214C355.83 207.452 359.55 243.535 355.453 278.977C354.928 283.507 354.15 297.154 351.62 307.464Z" fill="#2A2F4E"/>
<path d="M323.545 159.612L320.358 175.952C320.358 175.952 309.882 186.292 299.955 177.17C299.565 176.81 299.42 176.255 299.555 175.742L304.045 158.89L323.545 159.612Z" fill="#F5A88A"/>
<path d="M304.045 158.892L323.545 159.612L322.777 163.547L301.008 170.3L304.045 158.892Z" fill="#F5A88A"/>
<path d="M307.257 165.565C303.257 164.872 299.417 163.447 296.087 161.14C291.887 158.23 288.747 153.775 287.567 148.71C286.267 143.125 287.715 138.142 289.435 132.857C291.115 127.69 294.4 121.747 299.79 119.715C308.967 116.255 318.247 116.765 326.437 122.43C329.65 124.652 332.38 127.695 333.765 131.347C336.6 138.817 333.387 147.162 330.252 154C328.317 158.22 325.97 162.297 321.655 164.415C317.177 166.615 312.06 166.397 307.257 165.565Z" fill="#F5A88A"/>
<path d="M299.435 103.657C307.447 106.66 315.972 102.965 324.27 105.752C332.097 108.382 338.26 114.772 341.465 122.295C346.122 133.232 342.13 143.252 333.64 150.772C332.413 151.857 331.047 152.897 329.437 153.2C324.875 154.052 321.92 147.46 320.478 144.22C319.585 142.215 318.732 140.112 318.13 137.995C318.12 137.96 318.11 137.925 318.1 137.89C317.718 136.522 316.333 128.96 317.94 128.195C317.173 128.56 316.43 128.945 315.64 129.262C315.395 128.917 315.072 128.31 314.94 127.927C306.56 131.297 298.768 133.695 289.755 130.462C281.618 127.542 274.97 120.737 272.242 112.532C271.36 109.877 271.077 106.477 273.267 104.737C275.517 102.952 278.803 104.097 281.41 105.302C280.048 102.392 282.205 98.4546 285.392 98.0396C287.537 97.7596 289.598 98.8371 291.508 99.8546C293.973 101.162 296.657 102.615 299.435 103.657Z" fill="#2A2F4E"/>
<path d="M337.675 155.035C333.655 161.11 322.038 160.68 325.723 150.135C328.223 142.982 339.085 141.437 338.99 150.662C338.972 152.36 338.475 153.825 337.675 155.035Z" fill="#F5A88A"/>
<path d="M297.593 148.117C297.593 148.117 296.298 147.945 296.295 147.945C294.975 147.802 293.923 146.637 293.913 145.297C293.905 144.232 294.535 143.38 295.145 142.557C295.44 142.157 295.72 141.777 295.913 141.395C296.01 141.197 296.25 141.12 296.448 141.217C296.645 141.315 296.725 141.555 296.625 141.752C296.403 142.197 296.09 142.622 295.785 143.032C295.23 143.785 294.702 144.495 294.707 145.295C294.712 146.237 295.455 147.057 296.395 147.16L297.698 147.332L297.593 148.117Z" fill="#2A2F4E"/>
<path d="M297.229 153.537C296.479 153.537 295.724 153.419 294.994 153.177C294.746 153.094 294.612 152.827 294.694 152.579C294.777 152.332 295.044 152.197 295.292 152.279C297.339 152.959 299.629 152.509 301.267 151.104C301.464 150.934 301.764 150.957 301.934 151.154C302.104 151.352 302.082 151.652 301.884 151.822C300.579 152.944 298.914 153.537 297.229 153.537Z" fill="#2A2F4E"/>
<path d="M329.52 254.922C316.995 268.38 300.527 279.122 282.895 284.477C263.69 290.31 239.42 286.152 220.557 280.352C217.132 279.3 210.655 277.41 208.555 274.215C206.74 271.455 210.735 265.652 212.01 262.642L217.05 250.747C217.542 249.582 218.722 248.865 219.985 248.95C227.255 249.43 251.805 248.92 254.592 248.262C266.465 245.465 275.955 239.567 284.5 230.892C293.63 221.625 303.505 213.145 313.225 204.475C318.175 200.062 322.945 197.695 329.633 199.107C335.96 200.445 342.012 203.822 345.71 209.127C350.32 215.745 346.843 224.432 344.508 231.327C341.793 239.347 336.47 247.455 329.52 254.922Z" fill="#D04952"/>
<path d="M263.145 287.96C261.22 287.96 259.275 287.87 257.32 287.675C257 287.642 256.765 287.357 256.797 287.037C256.83 286.717 257.115 286.485 257.435 286.515C279.195 288.685 299.908 277.472 300.115 277.36C309.738 272.23 318.265 265.962 325.468 258.73C331.23 252.945 336.16 246.53 340.128 239.667C346.883 227.975 348.508 218.907 348.525 218.817C348.58 218.5 348.88 218.287 349.2 218.342C349.518 218.397 349.73 218.697 349.675 219.015C349.66 219.107 348.01 228.337 341.168 240.2C337.153 247.16 332.158 253.66 326.323 259.525C319.033 266.852 310.402 273.197 300.672 278.385C300.485 278.49 282.998 287.96 263.145 287.96Z" fill="white"/>
<path d="M208.848 270.982C208.775 270.982 208.703 270.97 208.633 270.94C208.333 270.82 208.188 270.482 208.308 270.182L216.913 248.642C217.005 248.412 217.223 248.267 217.475 248.275L220.008 248.367C224.408 248.617 240.745 248.38 247.723 248.28C255.198 248.172 262.43 245.517 262.767 245.39C263.08 245.255 268.778 242.76 274.017 239.567C277.61 237.38 288.443 227.162 298 218.15C302.705 213.715 307.148 209.525 310.12 206.87C319.09 198.867 324.103 198.575 324.31 198.565C324.638 198.55 324.903 198.802 324.918 199.122C324.93 199.442 324.682 199.715 324.362 199.727C322.712 199.815 317.775 201.6 310.897 207.737C307.935 210.38 303.497 214.565 298.8 218.995C289.2 228.047 278.323 238.307 274.625 240.56C269.19 243.87 263.275 246.437 263.218 246.462C263.21 246.465 263.2 246.47 263.193 246.472C262.885 246.59 255.568 249.327 247.74 249.442C240.753 249.542 224.385 249.78 219.955 249.53L217.845 249.452L209.393 270.612C209.298 270.842 209.078 270.982 208.848 270.982Z" fill="white"/>
<path d="M328.472 150.942C328.375 150.942 328.277 150.912 328.195 150.852C327.985 150.697 327.937 150.402 328.09 150.189C329.64 148.064 331.307 146.947 333.052 146.872C335.292 146.772 336.777 148.449 336.837 148.519C337.01 148.717 336.987 149.014 336.79 149.187C336.592 149.357 336.295 149.337 336.122 149.142C336.11 149.127 334.86 147.734 333.08 147.817C331.642 147.884 330.217 148.869 328.85 150.744C328.762 150.874 328.617 150.942 328.472 150.942Z" fill="#2A2F4E"/>
<path d="M303.383 176.807L309.687 171.252L323.8 172.927L326.375 178.597L319.2 181.964C319.203 181.964 301.248 186.814 303.383 176.807Z" fill="#2A2F4E"/>
<path d="M303.383 176.807L301.008 170.3L297.582 169.56L292.815 178.337L303.552 180.182L303.383 176.807Z" fill="#2A2F4E"/>
<path d="M310.345 173.395L314.487 180.067L305.422 177.687L310.345 173.395Z" fill="white"/>
<path d="M302.052 177.302L298.513 171.985L296.038 176.8L302.052 177.302Z" fill="white"/>
<path d="M302.915 178.947C300.655 186.677 298.292 194.375 296.09 202.117C294.942 205.975 293.83 209.842 292.75 213.72C291.687 217.6 290.62 221.48 289.712 225.392C289.682 225.53 289.545 225.617 289.407 225.587C289.272 225.557 289.185 225.422 289.212 225.287C290.025 221.332 291.04 217.43 292.112 213.545C293.177 209.66 294.277 205.785 295.41 201.92C297.755 194.212 300.092 186.505 302.655 178.867C302.677 178.797 302.755 178.757 302.828 178.782C302.898 178.805 302.935 178.877 302.915 178.947Z" fill="#656B80"/>
<path d="M373.485 443.94H238.478C236.75 443.94 235.348 442.54 235.348 440.81C235.348 439.082 236.748 437.682 238.478 437.682H373.485C374.05 437.682 374.353 437.34 374.483 437.135C374.613 436.93 374.795 436.512 374.555 436.002L338.705 359.302C337.973 357.737 338.65 355.875 340.215 355.145C341.78 354.412 343.643 355.087 344.375 356.655L380.225 433.355C381.308 435.67 381.135 438.34 379.763 440.497C378.39 442.652 376.043 443.94 373.485 443.94Z" fill="#DEDBDB"/>
<path d="M341.54 361.105H247.02C240.558 361.105 234.748 357.512 231.858 351.732L207.17 286.362C205.595 283.215 205.763 279.545 207.613 276.55C209.465 273.555 212.673 271.767 216.193 271.767H358.068L364.255 239.705C364.583 238.007 366.225 236.902 367.92 237.225C369.618 237.552 370.728 239.195 370.4 240.89L363.735 275.42C363.727 275.467 363.717 275.515 363.708 275.562L344.61 358.567C344.33 360.042 343.04 361.105 341.54 361.105ZM216.195 278.027C214.838 278.027 213.65 278.69 212.938 279.845C212.225 280.997 212.163 282.357 212.77 283.57L237.46 348.94C239.283 352.587 242.948 354.852 247.025 354.852H338.963L356.865 278.03H216.195V278.027Z" fill="#DEDBDB"/>
<path d="M311.263 360.162C311.25 360.162 311.238 360.16 311.225 360.16C309.933 360.055 308.973 358.923 309.078 357.632L317.098 274.865C317.203 273.585 318.313 272.63 319.588 272.712C319.6 272.712 319.613 272.715 319.625 272.715C320.918 272.82 321.88 273.952 321.773 275.242L313.753 358.01C313.65 359.29 312.538 360.245 311.263 360.162Z" fill="#DEDBDB"/>
<path d="M254.013 355.505L222.913 274.87H217.893L249.53 356.897C249.82 357.825 250.63 358.445 251.543 358.535C251.845 358.565 252.16 358.535 252.468 358.44C253.708 358.057 254.398 356.742 254.013 355.505Z" fill="#DEDBDB"/>
<path d="M265.323 361.055C264.28 360.987 263.373 360.225 263.17 359.147L243.188 274.595C242.948 273.32 243.785 272.095 245.058 271.855C246.333 271.61 247.558 272.45 247.798 273.725L267.78 358.277C268.02 359.552 267.183 360.777 265.91 361.017C265.713 361.057 265.515 361.067 265.323 361.055Z" fill="#DEDBDB"/>
<path d="M281.15 359.695C280.037 359.607 279.11 358.747 278.997 357.622L269.19 275.677C269.062 274.417 270.008 273.297 271.295 273.177C272.585 273.065 273.733 273.985 273.858 275.247L283.665 357.192C283.793 358.452 282.847 359.572 281.56 359.692C281.422 359.705 281.285 359.705 281.15 359.695Z" fill="#DEDBDB"/>
<path d="M294.67 360.322C293.395 360.322 292.348 359.3 292.325 358.02L290.457 274.94C290.432 273.645 291.462 272.572 292.76 272.55C292.775 272.55 292.79 272.55 292.805 272.55C294.08 272.55 295.125 273.572 295.15 274.852L297.017 357.932C297.042 359.227 296.012 360.3 294.715 360.322C294.7 360.322 294.685 360.322 294.67 360.322Z" fill="#DEDBDB"/>
<path d="M326.635 359.807C325.355 359.622 324.462 358.437 324.645 357.155L338.578 275.06C338.76 273.777 339.948 272.885 341.23 273.067H341.233C342.513 273.252 343.405 274.437 343.223 275.72L329.29 357.815C329.108 359.097 327.92 359.99 326.638 359.807H326.635Z" fill="#DEDBDB"/>
<path d="M258.921 473.267C265.881 469.972 268.851 461.658 265.555 454.699C262.26 447.739 253.946 444.769 246.987 448.065C240.027 451.361 237.057 459.674 240.353 466.633C243.648 473.593 251.962 476.563 258.921 473.267Z" fill="#2B1E19"/>
<path d="M353.228 473.517C360.342 470.571 363.721 462.414 360.774 455.3C357.827 448.186 349.671 444.808 342.557 447.755C335.442 450.701 332.064 458.858 335.011 465.972C337.958 473.086 346.114 476.464 353.228 473.517Z" fill="#2B1E19"/>
<path d="M402.24 237.225H368.228C365.71 237.225 363.67 239.265 363.67 241.782V243.382H402.24C403.94 243.382 405.318 242.005 405.318 240.305C405.318 238.602 403.94 237.225 402.24 237.225Z" fill="#2B1E19"/>
<path d="M123.625 418.307L146.018 421.107L158.273 396.5L138.042 386.425L123.625 418.307Z" fill="#FBC09A"/>
<path d="M97.6375 424.25C98.6725 420.975 102.255 419.685 105.185 418.68C107.167 418 109.152 417.332 111.137 416.67C116.517 414.87 121.907 412.95 127.327 411.26C127.702 413.182 129.515 414.125 131.645 414.655C138.142 416.272 146.377 416.827 150.03 412.922C149.43 418.682 149.08 424.472 148.627 430.247C148.542 431.335 148.457 432.425 148.372 433.512C148.372 433.512 133.697 432.362 132.822 432.295C125.217 431.7 117.61 431.102 110.005 430.507C106.617 430.242 103.232 429.975 99.845 429.712C97.555 429.535 97.12 428.94 97.24 426.46C97.275 425.72 97.41 424.97 97.6375 424.25Z" fill="#40223B"/>
<path d="M158.775 405.232C158.032 406.592 133.25 392.545 131.07 390.925C133.838 384.737 156.273 322.99 166.63 298.982C173.563 282.917 179.358 266.747 192.6 254.555C198.253 249.352 205.7 246.382 213.385 246.312C222.612 246.23 234.002 249.355 240.902 255.757C253.312 267.27 271.267 258.73 283.677 270.242C275.25 272.412 263.872 285.505 255.482 283.197C246.735 280.79 226.582 277.87 221.495 283.24C217.99 286.94 214.58 291.142 212.223 295.56C210.785 298.252 209.603 301.095 207.863 303.602C199.99 314.942 195.345 328.827 189.712 341.395C180.04 362.972 170.115 384.467 158.775 405.232Z" fill="#6DA3C5"/>
<path d="M196.995 266.877C195.122 266.255 193.273 265.595 191.403 264.865C189.605 264.165 187.972 262.265 189.385 260.302C188.367 259.362 188.035 258.442 188.34 256.985C188.633 255.59 189.498 254.5 190.72 253.807C190.123 253.532 189.765 252.65 189.69 251.995C189.465 249.982 190.533 248.082 192.715 247.815C192.343 247.86 192.493 246.11 192.545 245.93C192.713 245.347 193.123 244.782 193.475 244.295C194.265 243.197 195.475 242.477 196.867 242.505C197.805 242.522 198.705 242.857 199.58 243.19C204.84 245.182 210.573 246.775 215.613 249.262C217.72 250.302 217.542 249.872 217.852 251.975C218.035 253.21 217.575 254.95 217.425 256.187C216.85 260.877 216.07 264.697 216.255 269.47C216.263 269.637 216.263 269.825 216.148 269.95C216.038 270.07 215.86 270.09 215.7 270.102C214.148 270.225 212.59 270.35 211.033 270.29C207.553 270.16 204.203 269.122 200.895 268.115C199.575 267.712 198.28 267.305 196.995 266.877Z" fill="#FFAA8A"/>
<path d="M197.077 249.645C197.035 249.645 196.992 249.637 196.95 249.625L192.587 248.2C192.372 248.13 192.257 247.9 192.327 247.685C192.397 247.47 192.627 247.355 192.842 247.425L197.205 248.85C197.42 248.92 197.535 249.15 197.465 249.365C197.41 249.537 197.25 249.645 197.077 249.645Z" fill="#582E4D"/>
<path d="M194.168 255.135C194.133 255.135 194.098 255.13 194.063 255.12L190.615 254.2C190.398 254.142 190.268 253.917 190.325 253.7C190.383 253.482 190.605 253.352 190.825 253.41L194.273 254.33C194.49 254.387 194.62 254.612 194.563 254.83C194.513 255.012 194.348 255.135 194.168 255.135Z" fill="#582E4D"/>
<path d="M192.127 261.42C192.095 261.42 192.06 261.415 192.025 261.407L189.28 260.7C189.062 260.642 188.93 260.42 188.988 260.202C189.045 259.985 189.265 259.855 189.485 259.91L192.23 260.617C192.447 260.675 192.58 260.897 192.523 261.115C192.475 261.297 192.31 261.42 192.127 261.42Z" fill="#582E4D"/>
<path d="M329.52 254.764C316.995 268.222 300.527 278.964 282.895 284.319C263.69 290.152 239.42 285.994 220.557 280.194C217.132 279.142 210.655 277.252 208.555 274.057C206.74 271.297 210.735 265.494 212.01 262.484L217.05 250.589C217.542 249.424 218.722 248.707 219.985 248.792C227.255 249.272 251.805 248.762 254.592 248.104C266.465 245.307 275.955 239.409 284.5 230.734C293.63 221.467 303.505 212.987 313.225 204.317C318.175 199.904 322.945 197.537 329.633 198.949C335.96 200.287 342.012 203.664 345.71 208.969C350.32 215.587 346.843 224.274 344.508 231.169C341.793 239.192 336.47 247.297 329.52 254.764Z" fill="#2A2F4E"/>
<path d="M208.848 270.825C208.775 270.825 208.703 270.812 208.633 270.782C208.333 270.662 208.188 270.325 208.308 270.025L216.913 248.485C217.005 248.255 217.223 248.107 217.475 248.117L220.008 248.21C224.408 248.46 240.745 248.222 247.723 248.122C255.198 248.015 262.43 245.36 262.767 245.232C263.08 245.097 268.778 242.602 274.017 239.41C277.61 237.222 288.443 227.005 298 217.992C302.705 213.557 307.148 209.367 310.12 206.712C319.09 198.71 324.103 198.417 324.31 198.407C324.638 198.39 324.903 198.645 324.918 198.965C324.93 199.285 324.682 199.557 324.362 199.57C322.712 199.657 317.775 201.442 310.897 207.58C307.935 210.222 303.497 214.407 298.8 218.837C289.2 227.89 278.323 238.15 274.625 240.402C269.19 243.712 263.275 246.28 263.218 246.305C263.21 246.307 263.2 246.312 263.193 246.315C262.885 246.432 255.568 249.17 247.74 249.285C240.753 249.385 224.385 249.622 219.955 249.372L217.845 249.295L209.393 270.452C209.298 270.685 209.078 270.825 208.848 270.825Z" fill="white"/>
<path d="M419.785 187.36C419.785 190.11 417.565 192.348 414.835 192.348C412.105 192.348 409.885 190.11 409.885 187.36C409.885 184.61 412.105 182.373 414.835 182.373C417.565 182.373 419.785 184.61 419.785 187.36Z" fill="#569997"/>
<path d="M407.503 166.91C407.503 179.87 397.08 190.37 384.215 190.37C371.35 190.37 360.927 179.87 360.927 166.91C360.927 153.95 371.35 143.45 384.215 143.45C397.08 143.45 407.503 153.96 407.503 166.91Z" fill="#18D86A"/>
<path d="M382.335 181.71C382.325 181.71 382.325 181.71 382.315 181.71C381.177 181.7 380.127 181.132 379.49 180.19L369.907 165.807C368.855 164.222 369.27 162.095 370.842 161.035C372.415 159.975 374.53 160.392 375.58 161.975L382.347 172.142L393.832 155.277C394.895 153.705 397.03 153.307 398.582 154.377C400.145 155.447 400.537 157.6 399.475 159.162L385.165 180.212C384.525 181.155 383.462 181.71 382.335 181.71Z" fill="white"/>
<g opacity="0.7">
<g opacity="0.51">
<path d="M403.36 197.035C403.562 197.452 403.425 197.975 403.043 198.232C402.203 198.787 401.333 199.322 400.45 199.805C400.025 200.04 399.495 199.86 399.27 199.41C399.27 199.397 399.27 199.397 399.26 199.387C399.048 198.937 399.217 198.38 399.642 198.157C400.482 197.697 401.31 197.192 402.108 196.66C402.51 196.382 403.063 196.51 403.318 196.947C403.328 196.98 403.337 197.012 403.36 197.035ZM396.485 200.567C396.495 200.6 396.517 200.632 396.527 200.662C396.687 201.145 396.452 201.68 395.997 201.85C395.062 202.202 394.095 202.515 393.14 202.78C392.673 202.907 392.195 202.62 392.068 202.115C391.94 201.622 392.228 201.11 392.695 200.98C393.608 200.725 394.522 200.435 395.405 200.092C395.827 199.945 396.295 200.147 396.485 200.567ZM389.05 202.407C389.092 202.505 389.125 202.6 389.135 202.707C389.188 203.222 388.847 203.682 388.37 203.735C387.382 203.852 386.383 203.937 385.385 203.97C384.898 203.98 384.493 203.585 384.483 203.07C384.463 202.557 384.845 202.13 385.332 202.117C386.277 202.085 387.223 202.01 388.17 201.892C388.54 201.85 388.89 202.065 389.05 202.407ZM381.41 202.45C381.485 202.6 381.515 202.782 381.495 202.962C381.442 203.475 381.017 203.84 380.527 203.787C379.54 203.67 378.54 203.51 377.562 203.305C377.085 203.207 376.777 202.717 376.872 202.212C376.967 201.71 377.425 201.377 377.902 201.485C378.827 201.677 379.772 201.827 380.717 201.935C381.027 201.967 381.283 202.172 381.41 202.45ZM373.953 200.685C374.048 200.897 374.08 201.155 373.995 201.402C373.835 201.885 373.337 202.14 372.88 201.98C371.945 201.637 371 201.252 370.097 200.825C369.652 200.622 369.45 200.065 369.652 199.605C369.845 199.135 370.365 198.92 370.81 199.135C371.67 199.542 372.562 199.905 373.455 200.237C373.677 200.3 373.848 200.47 373.953 200.685ZM367.038 197.205C367.165 197.482 367.165 197.825 366.995 198.102C366.74 198.542 366.197 198.67 365.785 198.402C364.935 197.847 364.107 197.247 363.31 196.625C362.917 196.315 362.842 195.737 363.13 195.33C363.417 194.922 363.97 194.837 364.353 195.137C365.108 195.737 365.903 196.305 366.7 196.83C366.855 196.927 366.972 197.057 367.038 197.205ZM350.845 167.71C350.897 167.827 350.93 167.955 350.94 168.095C350.972 169.09 351.047 170.097 351.162 171.092C351.227 171.605 350.875 172.067 350.397 172.12C349.92 172.185 349.485 171.82 349.42 171.307C349.303 170.257 349.217 169.2 349.187 168.15C349.167 167.637 349.547 167.21 350.037 167.185C350.39 167.175 350.697 167.39 350.845 167.71ZM361.022 192.207C361.182 192.55 361.127 192.977 360.862 193.267C360.522 193.632 359.97 193.632 359.62 193.277C358.907 192.54 358.227 191.757 357.58 190.955C357.272 190.557 357.305 189.98 357.675 189.647C358.047 189.315 358.6 189.36 358.907 189.755C359.522 190.515 360.172 191.252 360.84 191.957C360.927 192.037 360.98 192.122 361.022 192.207ZM351.972 175.705C351.992 175.757 352.015 175.822 352.037 175.875C352.282 176.84 352.568 177.802 352.888 178.745C353.048 179.225 352.813 179.762 352.358 179.932C351.9 180.105 351.403 179.857 351.233 179.377C350.893 178.382 350.595 177.365 350.34 176.36C350.212 175.867 350.487 175.352 350.955 175.225C351.377 175.105 351.792 175.32 351.972 175.705ZM356.222 185.927C356.425 186.345 356.287 186.867 355.902 187.125C355.5 187.402 354.957 187.275 354.692 186.837C354.162 185.95 353.65 185.027 353.195 184.097C353.195 184.087 353.185 184.087 353.185 184.075C352.972 183.625 353.142 183.08 353.567 182.845C353.992 182.61 354.522 182.78 354.747 183.24C355.182 184.127 355.66 185.005 356.17 185.84C356.19 185.862 356.2 185.892 356.222 185.927Z" fill="#8BC3A3"/>
<path d="M351.187 161.205C351.262 161.365 351.292 161.558 351.272 161.75C351.207 162.22 351.145 162.703 351.103 163.185C351.05 163.698 350.625 164.063 350.135 164.008C349.658 163.955 349.307 163.495 349.36 162.98C349.412 162.478 349.465 161.975 349.54 161.473C349.615 160.97 350.06 160.618 350.538 160.69C350.825 160.745 351.06 160.938 351.187 161.205Z" fill="#8BC3A3"/>
</g>
</g>
<g opacity="0.7">
<g opacity="0.51">
<path d="M365.092 137.07C365.285 137.478 365.177 137.97 364.817 138.238C364.445 138.515 364.085 138.805 363.722 139.105C363.34 139.415 362.787 139.34 362.49 138.945C362.192 138.538 362.255 137.96 362.637 137.638C363.02 137.328 363.402 137.018 363.795 136.73C364.187 136.43 364.74 136.528 365.017 136.943C365.05 136.985 365.072 137.028 365.092 137.07Z" fill="#8BC3A3"/>
<path d="M415.555 150.45C415.735 150.835 415.905 151.22 416.075 151.618C416.277 152.088 416.085 152.635 415.64 152.848C415.205 153.06 414.672 152.848 414.482 152.388C414.09 151.478 413.665 150.6 413.217 149.745C412.982 149.295 413.132 148.728 413.557 148.483C413.982 148.238 414.512 148.398 414.747 148.848C415.025 149.358 415.3 149.903 415.555 150.45ZM417.712 156.198C417.732 156.24 417.755 156.295 417.765 156.348C418.052 157.343 418.295 158.36 418.497 159.365C418.592 159.868 418.295 160.36 417.817 160.468C417.34 160.575 416.872 160.255 416.777 159.75C416.585 158.788 416.352 157.823 416.087 156.883C415.95 156.39 416.215 155.875 416.672 155.728C417.085 155.598 417.522 155.8 417.712 156.198ZM412.22 144.735C412.4 145.13 412.305 145.613 411.965 145.89C411.582 146.2 411.03 146.115 410.732 145.708C410.17 144.925 409.575 144.155 408.947 143.428C408.627 143.043 408.65 142.453 409.012 142.123C409.372 141.78 409.925 141.813 410.255 142.198C410.912 142.968 411.54 143.783 412.125 144.605C412.167 144.638 412.2 144.69 412.22 144.735ZM419.072 164.03C419.125 164.138 419.157 164.255 419.157 164.373C419.232 165.4 419.252 166.448 419.242 167.488C419.232 168 418.84 168.408 418.35 168.395C417.862 168.385 417.48 167.968 417.49 167.455C417.5 166.47 417.48 165.475 417.405 164.5C417.372 163.988 417.735 163.548 418.212 163.515C418.595 163.485 418.925 163.698 419.072 164.03ZM407.047 138.955C407.195 139.275 407.165 139.673 406.93 139.973C406.622 140.368 406.06 140.41 405.697 140.08C404.985 139.45 404.242 138.84 403.487 138.26C403.095 137.96 403 137.383 403.275 136.965C403.55 136.548 404.102 136.453 404.497 136.753C405.295 137.35 406.08 137.993 406.825 138.668C406.92 138.743 406.992 138.848 407.047 138.955ZM400.81 134.513C400.927 134.77 400.937 135.08 400.8 135.358C400.577 135.808 400.045 135.988 399.62 135.755C398.792 135.295 397.942 134.878 397.092 134.493C396.647 134.29 396.435 133.755 396.625 133.273C396.817 132.803 397.327 132.578 397.772 132.78C398.675 133.188 399.567 133.625 400.44 134.108C400.597 134.193 400.725 134.343 400.81 134.513ZM393.797 131.613C393.892 131.805 393.915 132.043 393.862 132.268C393.735 132.76 393.257 133.06 392.79 132.92C391.887 132.663 390.972 132.45 390.06 132.268C389.582 132.17 389.262 131.69 389.347 131.185C389.432 130.683 389.89 130.35 390.367 130.435C391.322 130.618 392.29 130.853 393.235 131.12C393.49 131.198 393.692 131.378 393.797 131.613ZM386.362 130.393C386.427 130.533 386.457 130.683 386.457 130.843C386.437 131.358 386.032 131.753 385.542 131.73C384.617 131.688 383.672 131.688 382.747 131.73C382.26 131.753 381.855 131.355 381.835 130.843C381.812 130.33 382.185 129.903 382.675 129.88C383.652 129.838 384.64 129.838 385.617 129.88C385.947 129.89 386.222 130.095 386.362 130.393ZM378.86 130.93C378.892 131.005 378.925 131.09 378.935 131.175C379.02 131.678 378.712 132.16 378.232 132.255C377.32 132.428 376.405 132.653 375.502 132.908C375.035 133.038 374.557 132.748 374.43 132.255C374.302 131.763 374.577 131.25 375.045 131.12C375.99 130.853 376.957 130.618 377.912 130.435C378.307 130.35 378.69 130.565 378.86 130.93ZM371.657 133.198C371.667 133.22 371.667 133.23 371.677 133.25C371.87 133.72 371.657 134.268 371.21 134.47C370.582 134.748 369.957 135.058 369.34 135.38C369.117 135.498 368.905 135.615 368.682 135.735C368.257 135.97 367.727 135.8 367.502 135.338C367.27 134.878 367.437 134.32 367.875 134.085C368.107 133.958 368.332 133.84 368.565 133.71C369.202 133.378 369.872 133.058 370.53 132.758C370.957 132.565 371.455 132.76 371.657 133.198Z" fill="#8BC3A3"/>
<path d="M418.775 172.005C418.85 172.165 418.882 172.357 418.86 172.56C418.785 173.052 418.712 173.567 418.615 174.057C418.52 174.56 418.062 174.892 417.585 174.785C417.107 174.687 416.8 174.197 416.895 173.692C416.98 173.222 417.065 172.74 417.127 172.27C417.202 171.767 417.647 171.415 418.125 171.5C418.415 171.542 418.647 171.747 418.775 172.005Z" fill="#8BC3A3"/>
</g>
</g>
<path d="M210.275 349.972C210.275 349.972 222.873 349.192 226.24 344.705C226.24 344.705 207.818 350.655 193.91 347.375C193.91 347.377 203.048 351.042 210.275 349.972Z" fill="#656B80"/>
<path d="M165.633 325.197C162.63 324.687 159.535 324.47 156.585 323.722C155.373 323.415 151.468 322.517 148.238 321.282C152.443 323.882 156.72 326.512 161.478 327.85C165.835 329.075 169.853 329.557 174.4 329.142C176.953 328.91 179.468 327.85 181.958 327.645L165.633 325.197Z" fill="#656B80"/>
<path d="M158.755 324.22C165.203 325.747 181.598 323.557 189.46 332.36C196.34 340.062 197.592 350.437 210.275 349.972C201.712 350.287 194.08 352.615 187.727 344.972C185.142 341.86 183.478 338.377 180.518 335.592C177.368 332.627 174.01 330.705 170.068 328.922C166.503 327.31 162.438 325.705 158.755 324.22Z" fill="#2A2F4E"/>
<path d="M415.112 232.035C415.112 232.035 405.18 236.547 400.79 234.487C400.79 234.487 417.267 231.559 426.555 223.417C426.555 223.417 421.065 229.92 415.112 232.035Z" fill="#B23F4A"/>
<path d="M439.15 195.017C441.235 193.41 443.51 191.99 445.46 190.222C446.262 189.495 448.877 187.227 450.842 184.975C448.685 188.665 446.487 192.407 443.397 195.357C440.567 198.057 437.697 200.055 434.057 201.582C432.015 202.44 429.665 202.652 427.68 203.505L439.15 195.017Z" fill="#C13B00"/>
<path d="M444.003 191.482C439.7 195.262 426.295 200.237 423.862 210.147C421.735 218.817 424.985 227.247 415.112 232.034C421.777 228.802 428.547 227.484 430.297 219.074C431.01 215.649 430.867 212.317 431.997 208.989C433.2 205.449 434.985 202.619 437.27 199.659C439.342 196.984 441.793 194.109 444.003 191.482Z" fill="#D04952"/>
<path d="M109.028 368.68C113.643 368.68 117.385 364.938 117.385 360.322C117.385 355.707 113.643 351.965 109.028 351.965C104.412 351.965 100.67 355.707 100.67 360.322C100.67 364.938 104.412 368.68 109.028 368.68Z" fill="#CEE7EF"/>
<path opacity="0.5" d="M197.533 292.222H253.023C253.59 292.222 254.05 292.682 254.05 293.25C254.05 293.817 253.59 294.277 253.023 294.277H197.533C196.965 294.277 196.505 293.817 196.505 293.25C196.503 292.682 196.965 292.222 197.533 292.222Z" fill="white"/>
<path opacity="0.5" d="M186.737 298.71H242.227C242.795 298.71 243.255 299.17 243.255 299.737C243.255 300.305 242.795 300.765 242.227 300.765H186.737C186.17 300.765 185.71 300.305 185.71 299.737C185.708 299.17 186.17 298.71 186.737 298.71Z" fill="white"/>
<path d="M394.09 99.1548L392.86 105.17C397.262 107.495 400.89 107.87 403.408 107.67C405.628 107.492 407.595 106.17 408.658 104.212L409.672 102.342C402.79 108.617 394.09 99.1548 394.09 99.1548Z" fill="#EF9F00"/>
<path d="M407.668 105.652C407.668 105.652 408.377 98.2247 404.097 92.1472C399.817 86.0697 404.295 79.4847 409.437 79.7272C409.437 79.7272 401.605 80.9947 407.53 90.5047C413.452 100.015 408.948 103.795 407.668 105.652Z" fill="#EDBD5A"/>
<path d="M409.96 79.842C411.97 80.512 416.977 82.5395 417.777 86.327L416.008 86.832C416.008 86.832 413.132 80.632 408.365 79.812C408.887 79.657 409.442 79.672 409.96 79.842Z" fill="#EF9F00"/>
<defs>
<linearGradient id="paint0_linear_234_1168" x1="188.075" y1="162.671" x2="182.357" y2="226.096" gradientUnits="userSpaceOnUse">
<stop stop-color="#FAFFEC"/>
<stop offset="0.0298" stop-color="white"/>
<stop offset="1" stop-color="#FFF7EE"/>
</linearGradient>
<linearGradient id="paint1_linear_234_1168" x1="211.892" y1="164.819" x2="206.174" y2="228.243" gradientUnits="userSpaceOnUse">
<stop stop-color="#F4F7E0"/>
<stop offset="0.9747" stop-color="#EDE7DE"/>
</linearGradient>
<linearGradient id="paint2_linear_234_1168" x1="310.091" y1="336.562" x2="310.091" y2="467.973" gradientUnits="userSpaceOnUse">
<stop stop-color="#FAFFEC"/>
<stop offset="0.0298" stop-color="white"/>
<stop offset="1" stop-color="#FFF7EE"/>
</linearGradient>
<linearGradient id="paint3_linear_234_1168" x1="359.438" y1="336.562" x2="359.438" y2="467.973" gradientUnits="userSpaceOnUse">
<stop stop-color="#F4F7E0"/>
<stop offset="0.9747" stop-color="#EDE7DE"/>
</linearGradient>
<linearGradient id="paint4_linear_234_1168" x1="307.422" y1="338.18" x2="307.422" y2="469.591" gradientUnits="userSpaceOnUse">
<stop stop-color="#FAFFEC"/>
<stop offset="0.0298" stop-color="white"/>
<stop offset="1" stop-color="#FFF7EE"/>
</linearGradient>
<linearGradient id="paint5_linear_234_1168" x1="356.769" y1="338.18" x2="356.769" y2="469.591" gradientUnits="userSpaceOnUse">
<stop stop-color="#F4F7E0"/>
<stop offset="0.9747" stop-color="#EDE7DE"/>
</linearGradient>
</defs>
</svg>
